<?xml version="1.0" standalone="no"?>
<!DOCTYPE svg PUBLIC "-//W3C//DTD SVG 20010904//EN"
 "http://www.w3.org/TR/2001/REC-SVG-20010904/DTD/svg10.dtd">
<svg version="1.0" xmlns="http://www.w3.org/2000/svg"
 width="700.000000pt" height="700.000000pt" viewBox="0 0 700.000000 700.000000"
 preserveAspectRatio="xMidYMid meet">
<metadata>
Created by potrace 1.14, written by Peter Selinger 2001-2017
</metadata>
<g transform="translate(0.000000,700.000000) scale(0.100000,-0.100000)"
fill="#000000" stroke="none">
<path d="M3338 6915 c-2 -2 -43 -6 -93 -9 -49 -4 -101 -8 -115 -10 -14 -2 -50
-6 -80 -10 -47 -6 -110 -16 -240 -40 -120 -21 -409 -107 -555 -166 -162 -65
-408 -186 -515 -255 -19 -12 -69 -44 -110 -70 -304 -196 -596 -470 -858 -808
-55 -70 -165 -235 -198 -297 -10 -19 -24 -42 -31 -50 -22 -29 -152 -296 -196
-405 -106 -260 -201 -613 -222 -829 -3 -33 -8 -62 -9 -65 -17 -27 -25 -488
-12 -659 7 -103 8 -108 31 -267 75 -496 280 -1006 573 -1425 141 -200 407
-495 572 -631 36 -30 67 -57 70 -60 13 -15 215 -162 290 -211 97 -64 295 -176
379 -215 152 -70 195 -88 302 -128 139 -52 283 -95 439 -130 125 -28 128 -28
245 -45 44 -6 91 -13 105 -16 148 -24 608 -24 790 1 19 3 60 7 90 11 30 3 57
7 60 9 3 2 26 6 50 10 105 15 326 71 475 120 519 172 949 438 1340 830 170
170 265 282 390 460 342 488 557 1086 602 1675 9 118 9 438 0 547 -29 343
-102 661 -224 973 -48 121 -162 361 -212 445 -17 28 -38 64 -47 80 -34 60
-139 212 -214 310 -529 688 -1326 1162 -2170 1291 -25 3 -52 8 -60 9 -8 1 -46
6 -85 9 -38 4 -83 10 -100 12 -30 6 -452 13 -457 9z m325 -2410 c61 -16 122
-46 164 -82 l22 -18 -58 -71 -58 -71 -41 29 c-119 83 -265 76 -355 -17 -57
-59 -72 -98 -72 -195 0 -71 4 -93 25 -134 28 -55 67 -91 127 -118 66 -29 183
-24 246 11 30 17 32 21 33 79 l2 62 -94 0 c-91 0 -94 1 -95 23 0 12 -1 48 -2
79 -1 32 3 59 8 61 6 2 89 3 185 3 l175 -1 0 -190 0 -190 -52 -35 c-133 -88
-290 -115 -447 -75 -196 50 -320 227 -311 443 11 300 286 487 598 407z m-2626
-16 c93 -36 145 -109 146 -203 0 -64 -23 -116 -71 -158 -20 -17 -32 -33 -26
-35 6 -2 31 -17 56 -32 58 -37 88 -96 87 -172 -1 -104 -48 -171 -147 -210 -53
-21 -75 -23 -319 -27 l-262 -4 0 432 0 431 247 -3 c195 -3 256 -7 289 -19z
m1000 -63 l1 -84 -197 0 c-108 -1 -212 -1 -231 -1 l-35 -1 1 -77 c1 -43 2 -81
3 -85 0 -5 91 -8 201 -8 l200 0 0 -85 0 -85 -203 0 -202 0 0 -90 0 -90 233 0
c178 0 232 -3 233 -12 1 -21 1 -132 0 -145 -1 -10 -73 -13 -326 -13 l-325 0 0
430 0 430 323 0 323 0 1 -84z m665 74 c91 -18 160 -68 201 -145 30 -56 31
-203 2 -255 -29 -52 -75 -99 -117 -121 -21 -11 -38 -22 -38 -25 0 -3 14 -23
30 -44 17 -21 30 -40 30 -44 0 -3 32 -50 70 -105 39 -54 70 -101 70 -104 0 -3
-49 -5 -109 -5 l-110 0 -91 138 -91 137 -72 -1 -72 -1 -2 -85 c-1 -47 -2 -109
-2 -137 l-1 -53 -95 0 -94 0 -1 430 0 430 220 0 c120 0 243 -5 272 -10z m2008
-74 l0 -84 -230 1 -230 2 0 -87 0 -88 202 -2 203 -3 0 -80 0 -80 -202 -3 -203
-2 0 -90 0 -90 233 -2 232 -3 1 -82 1 -83 -327 0 -327 0 -1 430 0 430 324 0
324 0 0 -84z m547 -177 l198 -260 3 260 2 261 95 0 94 0 1 -430 0 -430 -83 0
-82 1 -205 271 -205 272 -3 -272 -2 -272 -93 0 -92 0 0 430 0 430 87 0 87 0
198 -261z m-1728 -813 c113 -10 255 -107 319 -214 48 -84 71 -230 49 -317 -22
-83 -54 -141 -111 -203 -158 -172 -435 -185 -612 -29 -151 133 -192 364 -97
540 59 108 203 208 317 222 28 3 52 7 54 10 2 2 9 2 15 0 7 -2 37 -6 66 -9z
m-1545 -27 c47 -16 115 -54 155 -85 5 -4 -33 -54 -80 -107 l-34 -38 -59 35
c-64 39 -123 52 -196 43 -85 -10 -156 -64 -193 -147 -30 -66 -29 -180 2 -242
29 -61 95 -119 156 -137 60 -18 160 -9 215 19 40 20 40 21 40 79 0 38 -4 60
-12 63 -7 2 -50 3 -95 2 l-83 -2 0 82 0 82 183 1 c100 0 184 -3 187 -8 3 -4 5
-86 4 -183 -1 -203 3 -194 -102 -249 -93 -49 -153 -64 -257 -66 -147 -3 -261
42 -348 138 -128 144 -148 372 -46 537 63 101 186 184 300 202 79 12 195 4
263 -19z m553 8 c4 -3 8 -153 8 -334 -1 -180 0 -333 2 -339 3 -7 71 -10 213
-10 l210 1 1 -22 c1 -29 1 -63 0 -112 l-1 -39 -307 0 -308 0 0 426 c0 392 1
425 17 431 21 7 152 6 165 -2z m1987 -1 c193 -25 279 -232 151 -362 l-43 -43
52 -33 c63 -41 97 -98 98 -166 0 -70 -18 -124 -54 -161 -74 -76 -142 -89 -440
-87 l-233 1 -2 427 -1 427 46 3 c77 5 370 1 426 -6z m917 -61 c16 -38 36 -83
43 -100 8 -16 55 -129 106 -250 51 -121 100 -238 110 -260 10 -22 32 -72 48
-112 l31 -72 -99 1 -99 0 -30 73 c-17 40 -35 83 -40 96 l-9 24 -178 -1 c-206
-2 -194 -1 -194 -13 0 -5 -16 -47 -36 -95 l-36 -85 -94 1 c-52 1 -94 3 -94 4
0 2 57 139 76 179 7 17 65 152 127 300 63 149 126 296 140 327 l26 58 86 -3
87 -2 29 -70z m647 66 c9 -1 12 -77 12 -344 l0 -344 213 1 212 0 0 -84 0 -85
-307 -2 -308 -1 0 428 0 429 28 3 c22 2 73 2 150 -1z"/>
<path d="M688 4336 c-2 -6 -3 -47 -3 -91 l1 -80 122 1 c106 0 126 3 149 20 50
38 49 106 -2 140 -20 13 -52 17 -145 19 -79 1 -120 -2 -122 -9z"/>
<path d="M689 3996 c-6 -73 -3 -161 7 -170 15 -16 253 -13 292 3 27 11 43 32
55 72 10 32 -20 76 -60 90 -48 16 -293 20 -294 5z"/>
<path d="M2401 4214 l0 -126 127 4 c112 3 131 6 159 25 76 55 60 179 -28 210
-19 7 -84 12 -146 12 l-112 1 0 -126z"/>
<path d="M3350 3401 c-38 -12 -122 -58 -154 -85 -33 -27 -30 -36 26 -77 l41
-29 21 43 c11 23 46 68 76 100 57 59 56 68 -10 48z"/>
<path d="M3535 3389 c50 -39 112 -118 128 -162 6 -17 10 -16 47 10 21 15 42
35 45 43 13 32 -125 117 -207 127 l-43 6 30 -24z"/>
<path d="M3425 3378 c-41 -24 -135 -144 -135 -174 0 -14 49 -31 117 -40 l42
-7 3 91 c2 49 1 101 -2 115 -4 22 -8 24 -25 15z"/>
<path d="M3481 3274 l0 -115 42 5 c43 4 106 23 120 35 17 16 -124 191 -154
191 -5 0 -9 -52 -8 -116z"/>
<path d="M3122 3236 c-32 -47 -61 -121 -68 -174 l-6 -48 83 1 83 0 7 35 c4 19
10 51 13 71 3 20 8 42 11 51 4 10 -12 28 -48 55 l-54 40 -21 -31z"/>
<path d="M3729 3223 l-46 -36 13 -51 c8 -28 14 -66 14 -83 0 -19 5 -34 13 -34
6 -1 45 -2 86 -3 l73 -1 -5 47 c-6 49 -42 144 -64 166 -7 7 -13 18 -13 23 0
17 -25 7 -71 -28z"/>
<path d="M3261 3123 c-10 -48 -14 -79 -12 -98 1 -7 40 -11 100 -10 l99 0 4 57
3 58 -35 6 c-19 3 -58 12 -87 20 -28 8 -53 14 -56 14 -3 0 -10 -21 -16 -47z"/>
<path d="M3618 3159 c-9 -5 -36 -12 -58 -15 -23 -3 -49 -7 -58 -8 -13 -2 -18
-15 -20 -62 l-3 -60 93 2 c51 0 99 2 105 3 14 1 11 42 -7 110 -11 42 -22 48
-52 30z"/>
<path d="M3054 2953 c11 -76 38 -145 75 -192 l19 -25 43 37 c23 20 47 37 52
37 5 0 6 12 2 28 -10 39 -13 51 -21 105 l-7 47 -84 0 -85 0 6 -37z"/>
<path d="M3250 2960 c0 -25 19 -130 23 -130 1 0 31 9 65 20 35 11 75 20 88 20
23 0 24 3 24 60 l0 60 -100 0 -100 0 0 -30z"/>
<path d="M3487 2983 c-4 -3 -7 -30 -7 -60 0 -50 1 -53 25 -53 14 0 27 0 30 -1
10 -2 91 -28 107 -34 13 -5 19 2 28 33 6 23 13 59 16 81 l6 41 -99 0 c-55 0
-103 -3 -106 -7z"/>
<path d="M3719 2988 c0 -2 -3 -18 -5 -35 -3 -18 -11 -56 -18 -83 l-13 -51 50
-39 c40 -32 53 -38 64 -28 25 21 63 105 77 173 l14 65 -84 0 c-46 0 -84 -1
-85 -2z"/>
<path d="M3400 2837 c-80 -15 -110 -25 -110 -38 0 -21 69 -116 111 -154 l44
-40 3 63 c2 34 2 88 0 120 l-3 58 -45 -9z"/>
<path d="M3485 2842 c-9 -9 -6 -232 4 -232 17 0 108 101 135 149 l27 50 -38
10 c-76 20 -122 29 -128 23z"/>
<path d="M3232 2773 c-11 -10 -30 -26 -41 -35 -27 -23 -20 -36 38 -76 41 -29
152 -72 183 -72 5 0 -14 24 -44 53 -29 29 -64 74 -78 100 -14 26 -28 47 -31
47 -3 0 -15 -8 -27 -17z"/>
<path d="M3649 2752 c-13 -20 -25 -41 -28 -47 -2 -5 -28 -34 -58 -63 l-53 -53
34 5 c70 11 145 50 209 107 17 16 16 18 -20 46 -59 46 -59 46 -84 5z"/>
<path d="M4239 3246 c-3 -35 2 -159 6 -166 8 -12 219 -5 253 9 68 28 67 124
-1 152 -39 16 -257 20 -258 5z"/>
<path d="M4244 2909 c-7 -11 -7 -170 0 -176 3 -3 66 -5 141 -5 147 1 188 13
205 57 10 27 4 73 -13 93 -6 8 -23 19 -37 24 -31 13 -288 19 -296 7z"/>
<path d="M5268 3072 c-26 -64 -50 -125 -53 -134 -6 -15 4 -17 104 -17 110 1
112 1 105 22 -13 43 -99 247 -104 247 -3 0 -26 -53 -52 -118z"/>
</g>
</svg>
