<?xml version="1.0" encoding="utf-8"?>
<!-- Generator: Adobe Illustrator 26.5.0, SVG Export Plug-In . SVG Version: 6.00 Build 0)  -->
<svg version="1.1" id="Layer_1" xmlns="http://www.w3.org/2000/svg" xmlns:xlink="http://www.w3.org/1999/xlink" x="0px" y="0px"
	 viewBox="0 0 600 600" style="enable-background:new 0 0 600 600;" xml:space="preserve">
<style type="text/css">
	.st0{fill:#E54639;}
	.st1{fill:#FFFFFF;stroke:#FFFFFF;stroke-width:0.8;stroke-miterlimit:10;}
</style>
<rect x="0.2" y="0.3" class="st0" width="600" height="600"/>
<path class="st1" d="M567.1,288.6h-0.2c-1.8-63.6-26-124.3-68.7-171.8c-49.7-55.3-120.3-87.5-194.5-89v-0.1h-13.3v0.1
	c-74.1,1.5-144.7,33.7-194.5,89c-42.6,47.5-66.8,108.2-68.6,171.8h-0.2v15.6h0.2c1.8,63.6,26,124.3,68.7,171.8
	c49.7,55.4,120.3,87.6,194.5,89.1v0.2h13.3v-0.2c74.2-1.5,144.7-33.7,194.5-89c42.7-47.5,66.8-108.2,68.7-171.8h0.2v-7.5
	c0-0.1,0-0.2,0-0.3V288.6z M551.3,288.6H448.2c-0.8-36.4-7.7-71.9-20.5-105.5c24-13.2,45.6-29.8,64.5-49.4
	C528.8,177.3,549.6,231.7,551.3,288.6L551.3,288.6z M186.3,417.1c32-15.5,66.2-23.8,101.8-24.9v146.3
	C244,510.4,208.4,467.9,186.3,417.1L186.3,417.1z M306.1,216.2c37.6-1.1,73.8-9.8,107.7-26c11.7,31.4,18,64.4,18.9,98.3H306.1V216.2
	z M306.1,200.6V54.3c44.1,28.2,79.8,70.7,101.8,121.4C375.9,191.2,341.7,199.6,306.1,200.6L306.1,200.6z M288.1,200.6
	c-35.6-1.1-69.8-9.4-101.8-24.9C208.4,125,244,82.5,288.1,54.3V200.6z M180.5,190.3c33.9,16.2,70,24.9,107.6,26v72.4H161.6
	C162.5,254.7,168.8,221.6,180.5,190.3L180.5,190.3z M288.2,304.2v72.4c-37.6,1-73.8,9.7-107.7,26c-11.7-31.4-18-64.4-18.9-98.4
	H288.2z M306.1,392.2c35.6,1.1,69.8,9.5,101.8,24.9c-22,50.8-57.7,93.3-101.8,121.4V392.2z M413.7,402.6c-33.9-16.2-70-25-107.7-26
	v-72.4h126.5C431.8,338.2,425.4,371.2,413.7,402.6L413.7,402.6z M481.6,121.9c-17.5,18.4-37.6,34-59.8,46.5
	C399.2,117,363.2,73.7,318.9,44.1C380.6,49.2,438.7,76.9,481.6,121.9L481.6,121.9z M275.3,44.1C231,73.7,195.1,117,172.5,168.4
	c-22.2-12.4-42.3-28-59.9-46.5C155.6,76.9,213.6,49.2,275.3,44.1L275.3,44.1z M102,133.7c18.9,19.7,40.5,36.3,64.5,49.4
	c-12.8,33.6-19.7,69-20.5,105.5H42.9C44.6,231.7,65.5,177.3,102,133.7L102,133.7z M42.9,304.2H146c0.9,36.5,7.8,71.9,20.5,105.5
	c-24,13.2-45.6,29.8-64.4,49.4C65.5,415.6,44.6,361.1,42.9,304.2L42.9,304.2z M112.6,470.9c17.5-18.4,37.6-34,59.9-46.5
	c22.6,51.4,58.5,94.7,102.8,124.3C213.6,543.7,155.6,516,112.6,470.9L112.6,470.9z M318.9,548.8c44.3-29.6,80.3-72.9,102.9-124.3
	c22.3,12.5,42.3,28,59.9,46.5C438.7,516,380.6,543.7,318.9,548.8L318.9,548.8z M492.2,459.2c-18.9-19.6-40.5-36.3-64.5-49.4
	c12.8-33.6,19.7-69,20.5-105.5h103.2C549.6,361.1,528.8,415.6,492.2,459.2L492.2,459.2z M492.2,459.2"/>
</svg>
