<?xml version="1.0" encoding="utf-8"?>
<!-- Generator: Adobe Illustrator 26.5.0, SVG Export Plug-In . SVG Version: 6.00 Build 0)  -->
<svg version="1.1" id="Layer_1" xmlns="http://www.w3.org/2000/svg" xmlns:xlink="http://www.w3.org/1999/xlink" x="0px" y="0px"
	 viewBox="0 0 600 600" style="enable-background:new 0 0 600 600;" xml:space="preserve">
<style type="text/css">
	.st0{fill:#E54639;}
	.st1{fill:#FFFFFF;}
	.st2{fill:#FFFFFF;stroke:#FFFFFF;stroke-width:0.8;stroke-miterlimit:10;}
</style>
<path class="st0" d="M592.9,300c0,161.5-130.9,292.5-292.5,292.5C138.9,592.5,8,461.5,8,300C8,138.5,138.9,7.5,300.5,7.5
	C462,7.5,592.9,138.5,592.9,300z"/>
<g>
	<g>
		<path class="st1" d="M78,287.5H43v-73.7h34.2c15.1,0,24.3,7.5,24.3,19.1v0.2c0,8.3-4.4,13-9.7,15.9c8.5,3.3,13.8,8.2,13.8,18.1
			v0.2C105.6,280.8,94.6,287.5,78,287.5z M85.4,235.6c0-4.8-3.8-7.6-10.6-7.6h-16v15.6h14.9c7.2,0,11.7-2.3,11.7-7.8V235.6z
			 M89.5,265.1c0-4.9-3.7-8-12-8H58.7v16.2H78c7.2,0,11.5-2.5,11.5-8V265.1z"/>
		<path class="st1" d="M119,287.5v-73.7h55.6v14.4h-39.5v14.9h34.7v14.4h-34.7v15.5h40v14.4H119z"/>
		<path class="st1" d="M234.2,287.5l-15.8-23.6h-12.7v23.6h-16.2v-73.7h33.7c17.4,0,27.8,9.2,27.8,24.3v0.2
			c0,11.9-6.4,19.4-15.8,22.8l18,26.3H234.2z M234.5,239c0-7-4.8-10.5-12.7-10.5h-16.1v21.2h16.4c7.9,0,12.4-4.2,12.4-10.4V239z"/>
		<path class="st1" d="M301.1,288.8c-23,0-38.7-16.1-38.7-37.9v-0.2c0-21,16.3-38.1,38.6-38.1c13.3,0,21.3,3.6,29,10.1L319.7,235
			c-5.7-4.7-10.7-7.5-19.3-7.5c-11.8,0-21.2,10.4-21.2,23v0.2c0,13.5,9.3,23.4,22.3,23.4c5.9,0,11.2-1.5,15.3-4.4v-10.5h-16.3v-14
			h32v32C325,283.5,314.5,288.8,301.1,288.8z"/>
		<path class="st1" d="M348.1,287.5v-73.7h55.6v14.4h-39.5v14.9H399v14.4h-34.7v15.5h40v14.4H348.1z"/>
		<path class="st1" d="M470.3,287.5l-35.7-46.9v46.9h-16v-73.7h14.9l34.5,45.4v-45.4h16v73.7H470.3z"/>
	</g>
	<path class="st1" d="M154.8,382.1c-23,0-38.7-16.1-38.7-37.9V344c0-21,16.3-38.1,38.6-38.1c13.3,0,21.3,3.6,29,10.1l-10.2,12.3
		c-5.7-4.7-10.7-7.5-19.3-7.5c-11.8,0-21.2,10.4-21.2,22.9v0.2c0,13.5,9.3,23.4,22.3,23.4c5.9,0,11.2-1.5,15.3-4.4v-10.5h-16.3v-14
		h32v32C178.7,376.8,168.3,382.1,154.8,382.1z"/>
	<path class="st1" d="M201.9,380.8v-73.7h16.2v59h36.7v14.7H201.9z"/>
	<path class="st1" d="M382.5,380.8h-35.1v-73.7h34.2c15.1,0,24.3,7.5,24.3,19.1v0.2c0,8.3-4.4,12.9-9.7,15.9
		c8.5,3.3,13.8,8.2,13.8,18.1v0.2C410,374.1,399.1,380.8,382.5,380.8z M389.8,328.9c0-4.8-3.8-7.6-10.6-7.6h-16v15.6h14.9
		c7.2,0,11.7-2.3,11.7-7.8V328.9z M393.9,358.4c0-4.9-3.7-8-12-8h-18.7v16.2h19.3c7.2,0,11.5-2.5,11.5-8V358.4z"/>
	<path class="st1" d="M478.2,380.8l-6.7-16.5h-31.2l-6.7,16.5h-16.5l31.6-74.2h14.9l31.6,74.2H478.2z M455.9,326.1l-9.8,23.9h19.6
		L455.9,326.1z"/>
	<path class="st1" d="M506.6,380.8v-73.7h16.2v59h36.7v14.7H506.6z"/>
	<path class="st2" d="M335,342L335,342c-0.3-8.9-3.7-17.4-9.7-24.1c-7-7.8-16.9-12.3-27.3-12.5v0h-1.9v0
		c-10.4,0.2-20.3,4.7-27.3,12.5c-6,6.7-9.4,15.2-9.6,24.1h0v2.2h0c0.3,8.9,3.6,17.4,9.6,24.1c7,7.8,16.9,12.3,27.3,12.5v0h1.9v0
		c10.4-0.2,20.3-4.7,27.3-12.5c6-6.7,9.4-15.2,9.6-24.1h0v-1c0,0,0,0,0,0V342z M332.8,342h-14.5c-0.1-5.1-1.1-10.1-2.9-14.8
		c3.4-1.8,6.4-4.2,9-6.9C329.6,326.4,332.5,334.1,332.8,342L332.8,342z M281.6,360.1c4.5-2.2,9.3-3.3,14.3-3.5v20.5
		C289.7,373.2,284.7,367.2,281.6,360.1L281.6,360.1z M298.4,331.9c5.3-0.1,10.4-1.4,15.1-3.6c1.6,4.4,2.5,9,2.6,13.8h-17.8V331.9z
		 M298.4,329.7v-20.5c6.2,4,11.2,9.9,14.3,17C308.2,328.4,303.4,329.6,298.4,329.7L298.4,329.7z M295.9,329.7
		c-5-0.2-9.8-1.3-14.3-3.5c3.1-7.1,8.1-13.1,14.3-17V329.7z M280.8,328.2c4.8,2.3,9.8,3.5,15.1,3.6V342h-17.8
		C278.2,337.3,279.1,332.6,280.8,328.2L280.8,328.2z M295.9,344.2v10.2c-5.3,0.1-10.4,1.4-15.1,3.6c-1.6-4.4-2.5-9-2.6-13.8H295.9z
		 M298.4,356.6c5,0.2,9.8,1.3,14.3,3.5c-3.1,7.1-8.1,13.1-14.3,17V356.6z M313.5,358c-4.8-2.3-9.8-3.5-15.1-3.6v-10.2h17.8
		C316,349,315.1,353.6,313.5,358L313.5,358z M323,318.7c-2.5,2.6-5.3,4.8-8.4,6.5c-3.2-7.2-8.2-13.3-14.4-17.4
		C308.8,308.4,317,312.3,323,318.7L323,318.7z M294.1,307.7c-6.2,4.2-11.3,10.2-14.4,17.4c-3.1-1.7-5.9-3.9-8.4-6.5
		C277.3,312.3,285.4,308.4,294.1,307.7L294.1,307.7z M269.7,320.3c2.6,2.8,5.7,5.1,9,6.9c-1.8,4.7-2.8,9.7-2.9,14.8h-14.5
		C261.7,334.1,264.6,326.4,269.7,320.3L269.7,320.3z M261.4,344.2h14.5c0.1,5.1,1.1,10.1,2.9,14.8c-3.4,1.8-6.4,4.2-9,6.9
		C264.6,359.9,261.7,352.2,261.4,344.2L261.4,344.2z M271.2,367.6c2.5-2.6,5.3-4.8,8.4-6.5c3.2,7.2,8.2,13.3,14.4,17.4
		C285.4,377.9,277.3,374,271.2,367.6L271.2,367.6z M300.2,378.6c6.2-4.2,11.3-10.2,14.4-17.4c3.1,1.7,5.9,3.9,8.4,6.5
		C317,374,308.8,377.9,300.2,378.6L300.2,378.6z M324.5,366c-2.7-2.8-5.7-5.1-9-6.9c1.8-4.7,2.8-9.7,2.9-14.8h14.5
		C332.5,352.2,329.6,359.9,324.5,366L324.5,366z M324.5,366"/>
</g>
</svg>
