<?xml version="1.0" standalone="no"?>
<!DOCTYPE svg PUBLIC "-//W3C//DTD SVG 20010904//EN"
 "http://www.w3.org/TR/2001/REC-SVG-20010904/DTD/svg10.dtd">
<svg version="1.0" xmlns="http://www.w3.org/2000/svg"
 width="700.000000pt" height="700.000000pt" viewBox="0 0 700.000000 700.000000"
 preserveAspectRatio="xMidYMid meet">
<metadata>
Created by potrace 1.14, written by Peter Selinger 2001-2017
</metadata>
<g transform="translate(0.000000,700.000000) scale(0.100000,-0.100000)"
fill="#000000" stroke="none">
<path d="M3498 6916 c-1 -2 -70 -6 -153 -10 -82 -3 -163 -8 -180 -10 -16 -2
-55 -6 -85 -10 -30 -3 -66 -8 -80 -11 -14 -3 -41 -7 -61 -10 -33 -4 -250 -49
-289 -60 -308 -84 -557 -186 -835 -340 -81 -44 -323 -208 -412 -277 -623 -489
-1060 -1182 -1226 -1945 -19 -87 -38 -179 -41 -204 -4 -25 -9 -57 -11 -70 -40
-243 -38 -712 5 -969 5 -30 12 -71 15 -90 21 -133 64 -306 116 -467 249 -767
766 -1421 1468 -1858 147 -91 388 -208 570 -277 152 -57 365 -121 481 -143 14
-3 35 -7 48 -10 58 -13 70 -15 112 -20 25 -3 55 -8 67 -10 12 -3 46 -8 75 -11
29 -3 64 -8 78 -11 14 -2 144 -6 290 -8 232 -4 344 1 480 19 19 2 58 7 85 11
28 3 57 8 65 10 8 2 31 7 50 10 374 63 824 238 1170 453 350 219 597 440 899
807 104 127 261 377 358 570 138 276 267 664 307 920 30 195 34 230 43 350 13
175 6 564 -12 649 -2 12 -7 45 -10 75 -3 29 -7 56 -9 60 -2 3 -7 28 -10 55
-17 121 -61 302 -118 475 -329 1008 -1116 1813 -2116 2162 -88 31 -241 77
-280 85 -13 3 -49 11 -80 20 -64 16 -258 50 -342 60 -30 3 -66 8 -80 10 -14 2
-92 7 -175 10 -82 3 -155 7 -162 9 -6 2 -13 2 -15 1z"/>
</g>
</svg>
