<?xml version="1.0" encoding="utf-8"?>
<!-- Generator: Adobe Illustrator 26.5.0, SVG Export Plug-In . SVG Version: 6.00 Build 0)  -->
<svg version="1.1" id="Layer_1" xmlns="http://www.w3.org/2000/svg" xmlns:xlink="http://www.w3.org/1999/xlink" x="0px" y="0px"
	 viewBox="0 0 211.2 71.6" style="enable-background:new 0 0 211.2 71.6;" xml:space="preserve">
<style type="text/css">
	.st0{fill:#FFFFFF;}
	.st1{fill:#FFFFFF;stroke:#FFFFFF;stroke-width:0.8;stroke-miterlimit:10;}
</style>
<g>
	<g>
		<path class="st0" d="M14.3,30.6H0V0.5h14c6.2,0,9.9,3.1,9.9,7.8v0.1c0,3.4-1.8,5.3-4,6.5c3.5,1.3,5.6,3.4,5.6,7.4v0.1
			C25.6,27.9,21.1,30.6,14.3,30.6z M17.3,9.4c0-2-1.5-3.1-4.3-3.1H6.5v6.4h6.1C15.5,12.7,17.3,11.8,17.3,9.4L17.3,9.4z M19,21.5
			c0-2-1.5-3.3-4.9-3.3H6.5v6.6h7.9C17.3,24.8,19,23.8,19,21.5L19,21.5z"/>
		<path class="st0" d="M31.1,30.6V0.5h22.7v5.9H37.7v6.1h14.2v5.9H37.7v6.3H54v5.9H31.1z"/>
		<path class="st0" d="M78.2,30.6L71.7,21h-5.2v9.6h-6.6V0.5h13.8c7.1,0,11.4,3.7,11.4,9.9v0.1c0,4.9-2.6,7.9-6.5,9.3L86,30.6H78.2z
			 M78.3,10.8c0-2.8-2-4.3-5.2-4.3h-6.6v8.7h6.7C76.5,15.2,78.3,13.4,78.3,10.8L78.3,10.8z"/>
		<path class="st0" d="M105.5,31.2c-9.4,0-15.8-6.6-15.8-15.5v-0.1C89.7,7,96.4,0,105.5,0c5.4,0,8.7,1.5,11.8,4.1l-4.2,5
			c-2.3-1.9-4.4-3.1-7.9-3.1c-4.8,0-8.7,4.3-8.7,9.4v0.1c0,5.5,3.8,9.6,9.1,9.6c2.4,0,4.6-0.6,6.2-1.8V19h-6.7v-5.7h13.1v13.1
			C115.3,29,111,31.2,105.5,31.2z"/>
		<path class="st0" d="M124.8,30.6V0.5h22.7v5.9h-16.1v6.1h14.2v5.9h-14.2v6.3h16.4v5.9H124.8z"/>
		<path class="st0" d="M174.7,30.6l-14.6-19.2v19.2h-6.5V0.5h6.1l14.1,18.6V0.5h6.5v30.1H174.7z"/>
	</g>
	<path class="st0" d="M45.7,69.3c-9.4,0-15.8-6.6-15.8-15.5v-0.1c0-8.6,6.7-15.6,15.8-15.6c5.4,0,8.7,1.5,11.8,4.1l-4.2,5
		c-2.3-1.9-4.4-3.1-7.9-3.1c-4.8,0-8.7,4.3-8.7,9.4v0.1c0,5.5,3.8,9.6,9.1,9.6c2.4,0,4.6-0.6,6.2-1.8v-4.3h-6.7v-5.7h13.1v13.1
		C55.5,67.2,51.2,69.3,45.7,69.3z"/>
	<path class="st0" d="M65,68.8V38.7h6.6v24.1h15v6H65z"/>
	<path class="st0" d="M138.8,68.8h-14.3V38.7h14c6.2,0,9.9,3.1,9.9,7.8v0.1c0,3.4-1.8,5.3-4,6.5c3.5,1.3,5.6,3.4,5.6,7.4v0.1
		C150.1,66,145.6,68.8,138.8,68.8z M141.8,47.6c0-2-1.5-3.1-4.3-3.1h-6.5v6.4h6.1C140,50.8,141.8,49.9,141.8,47.6L141.8,47.6z
		 M143.5,59.6c0-2-1.5-3.3-4.9-3.3h-7.7V63h7.9C141.7,63,143.5,62,143.5,59.6L143.5,59.6z"/>
	<path class="st0" d="M178,68.8l-2.8-6.8h-12.7l-2.8,6.8H153l12.9-30.3h6.1l12.9,30.3H178z M168.8,46.4l-4,9.8h8L168.8,46.4z"/>
	<path class="st0" d="M189.6,68.8V38.7h6.6v24.1h15v6H189.6z"/>
	<path class="st1" d="M119.4,52.9L119.4,52.9c-0.1-3.6-1.5-7.1-4-9.9c-2.9-3.2-6.9-5-11.2-5.1v0h-0.8v0c-4.3,0.1-8.3,1.9-11.2,5.1
		c-2.4,2.7-3.8,6.2-3.9,9.9h0v0.9h0c0.1,3.6,1.5,7.1,3.9,9.9c2.9,3.2,6.9,5,11.2,5.1v0h0.8v0c4.3-0.1,8.3-1.9,11.2-5.1
		c2.4-2.7,3.8-6.2,3.9-9.9h0v-0.4c0,0,0,0,0,0V52.9z M118.5,52.9h-5.9c0-2.1-0.4-4.1-1.2-6.1c1.4-0.8,2.6-1.7,3.7-2.8
		C117.2,46.6,118.4,49.7,118.5,52.9L118.5,52.9z M97.6,60.3c1.8-0.9,3.8-1.4,5.8-1.4v8.4C100.9,65.7,98.8,63.2,97.6,60.3L97.6,60.3z
		 M104.4,48.8c2.2-0.1,4.2-0.6,6.2-1.5c0.7,1.8,1,3.7,1.1,5.6h-7.3V48.8z M104.4,47.9v-8.4c2.5,1.6,4.6,4.1,5.8,7
		C108.4,47.4,106.5,47.8,104.4,47.9L104.4,47.9z M103.4,47.9c-2-0.1-4-0.5-5.8-1.4c1.3-2.9,3.3-5.4,5.8-7V47.9z M97.2,47.3
		c1.9,0.9,4,1.4,6.2,1.5v4.2h-7.3C96.2,51,96.6,49.1,97.2,47.3L97.2,47.3z M103.4,53.8V58c-2.2,0.1-4.2,0.6-6.2,1.5
		c-0.7-1.8-1-3.7-1.1-5.6H103.4z M104.4,58.9c2,0.1,4,0.5,5.8,1.4c-1.3,2.9-3.3,5.4-5.8,7V58.9z M110.6,59.5c-1.9-0.9-4-1.4-6.2-1.5
		v-4.2h7.3C111.6,55.8,111.3,57.7,110.6,59.5L110.6,59.5z M114.5,43.4c-1,1.1-2.2,2-3.4,2.7c-1.3-2.9-3.4-5.4-5.9-7.1
		C108.7,39.2,112,40.8,114.5,43.4L114.5,43.4z M102.7,38.9c-2.5,1.7-4.6,4.2-5.9,7.1c-1.3-0.7-2.4-1.6-3.4-2.7
		C95.8,40.8,99.1,39.2,102.7,38.9L102.7,38.9z M92.7,44.1c1.1,1.1,2.3,2.1,3.7,2.8c-0.7,1.9-1.1,4-1.2,6.1h-5.9
		C89.4,49.7,90.6,46.6,92.7,44.1L92.7,44.1z M89.3,53.8h5.9c0,2.1,0.4,4.1,1.2,6.1c-1.4,0.8-2.6,1.7-3.7,2.8
		C90.6,60.2,89.4,57.1,89.3,53.8L89.3,53.8z M93.3,63.4c1-1.1,2.2-2,3.4-2.7c1.3,3,3.4,5.4,5.9,7.1C99.1,67.6,95.8,66,93.3,63.4
		L93.3,63.4z M105.2,67.9c2.5-1.7,4.6-4.2,5.9-7.1c1.3,0.7,2.4,1.6,3.4,2.7C112,66,108.7,67.6,105.2,67.9L105.2,67.9z M115.1,62.7
		c-1.1-1.1-2.3-2.1-3.7-2.8c0.7-1.9,1.1-4,1.2-6.1h5.9C118.4,57.1,117.2,60.2,115.1,62.7L115.1,62.7z M115.1,62.7"/>
</g>
</svg>
