<?xml version="1.0" encoding="utf-8"?>
<!-- Generator: Adobe Illustrator 26.5.0, SVG Export Plug-In . SVG Version: 6.00 Build 0)  -->
<svg version="1.1" id="Layer_1" xmlns="http://www.w3.org/2000/svg" xmlns:xlink="http://www.w3.org/1999/xlink" x="0px" y="0px"
	 viewBox="0 0 585 585" style="enable-background:new 0 0 585 585;" xml:space="preserve">
<style type="text/css">
	.st0{fill:#E54639;}
	.st1{fill:#FFFFFF;}
	.st2{fill:#FFFFFF;stroke:#FFFFFF;stroke-width:0.8;stroke-miterlimit:10;}
</style>
<path class="st0" d="M585,292.5C585,454,454,585,292.5,585C131,585,0,454,0,292.5C0,130.9,131,0,292.5,0C454,0,585,130.9,585,292.5z
	"/>
<g>
	<path class="st1" d="M70,280H35v-73.7h34.2c15.1,0,24.3,7.5,24.3,19.1v0.2c0,8.3-4.4,13-9.7,15.9c8.5,3.3,13.8,8.2,13.8,18.1v0.2
		C97.6,273.3,86.7,280,70,280z M77.4,228.1c0-4.8-3.8-7.6-10.6-7.6h-16v15.6h14.9c7.2,0,11.7-2.3,11.7-7.8V228.1z M81.5,257.6
		c0-4.9-3.7-8-12-8H50.8v16.2H70c7.2,0,11.5-2.5,11.5-8V257.6z"/>
	<path class="st1" d="M111,280v-73.7h55.6v14.4h-39.5v14.9h34.7v14.4h-34.7v15.5h40V280H111z"/>
	<path class="st1" d="M226.3,280l-15.8-23.6h-12.7V280h-16.2v-73.7h33.7c17.4,0,27.8,9.2,27.8,24.3v0.2c0,11.9-6.4,19.4-15.8,22.8
		l18,26.3H226.3z M226.6,231.5c0-7-4.8-10.5-12.7-10.5h-16.1v21.2h16.4c7.9,0,12.4-4.2,12.4-10.4V231.5z"/>
	<path class="st1" d="M293.1,281.3c-23,0-38.7-16.1-38.7-37.9v-0.2c0-21,16.3-38.1,38.6-38.1c13.3,0,21.3,3.6,29,10.1l-10.2,12.3
		c-5.7-4.7-10.7-7.5-19.3-7.5c-11.8,0-21.2,10.4-21.2,23v0.2c0,13.5,9.3,23.4,22.3,23.4c5.9,0,11.2-1.5,15.3-4.4v-10.5h-16.3v-14h32
		v32C317,276,306.6,281.3,293.1,281.3z"/>
	<path class="st1" d="M340.2,280v-73.7h55.6v14.4h-39.5v14.9H391v14.4h-34.7v15.5h40V280H340.2z"/>
	<path class="st1" d="M462.4,280l-35.7-46.9V280h-16v-73.7h14.9l34.5,45.4v-45.4h16V280H462.4z"/>
</g>
<path class="st1" d="M146.8,374.6c-23,0-38.7-16.1-38.7-37.9v-0.2c0-21,16.3-38.1,38.6-38.1c13.3,0,21.3,3.6,29,10.1l-10.2,12.3
	c-5.7-4.7-10.7-7.5-19.3-7.5c-11.8,0-21.2,10.4-21.2,22.9v0.2c0,13.5,9.3,23.4,22.3,23.4c5.9,0,11.2-1.5,15.3-4.4v-10.5h-16.3v-14
	h32v32C170.7,369.3,160.3,374.6,146.8,374.6z"/>
<path class="st1" d="M193.9,373.3v-73.7h16.2v59h36.7v14.7H193.9z"/>
<path class="st1" d="M374.5,373.3h-35.1v-73.7h34.2c15.1,0,24.3,7.5,24.3,19.1v0.2c0,8.3-4.4,12.9-9.7,15.9
	c8.5,3.3,13.8,8.2,13.8,18.1v0.2C402.1,366.6,391.1,373.3,374.5,373.3z M381.9,321.4c0-4.8-3.8-7.6-10.6-7.6h-16v15.6h14.9
	c7.2,0,11.7-2.3,11.7-7.8V321.4z M386,350.9c0-4.9-3.7-8-12-8h-18.7v16.2h19.3c7.2,0,11.5-2.5,11.5-8V350.9z"/>
<path class="st1" d="M470.3,373.3l-6.7-16.5h-31.2l-6.7,16.5h-16.5l31.6-74.2h14.9l31.6,74.2H470.3z M448,318.6l-9.8,23.9h19.6
	L448,318.6z"/>
<path class="st1" d="M498.6,373.3v-73.7h16.2v59h36.7v14.7H498.6z"/>
<path class="st2" d="M327,334.5L327,334.5c-0.3-8.9-3.7-17.4-9.7-24.1c-7-7.8-16.9-12.3-27.3-12.5v0h-1.9v0
	c-10.4,0.2-20.3,4.7-27.3,12.5c-6,6.7-9.4,15.2-9.6,24.1h0v2.2h0c0.3,8.9,3.6,17.4,9.6,24.1c7,7.8,16.9,12.3,27.3,12.5v0h1.9v0
	c10.4-0.2,20.3-4.7,27.3-12.5c6-6.7,9.4-15.2,9.6-24.1h0v-1c0,0,0,0,0,0V334.5z M324.8,334.5h-14.5c-0.1-5.1-1.1-10.1-2.9-14.8
	c3.4-1.8,6.4-4.2,9-6.9C321.7,318.9,324.6,326.6,324.8,334.5L324.8,334.5z M273.6,352.6c4.5-2.2,9.3-3.3,14.3-3.5v20.5
	C281.7,365.7,276.7,359.7,273.6,352.6L273.6,352.6z M290.4,324.4c5.3-0.1,10.4-1.4,15.1-3.6c1.6,4.4,2.5,9,2.6,13.8h-17.8V324.4z
	 M290.4,322.2v-20.5c6.2,4,11.2,9.9,14.3,17C300.2,320.9,295.4,322,290.4,322.2L290.4,322.2z M287.9,322.2c-5-0.2-9.8-1.3-14.3-3.5
	c3.1-7.1,8.1-13.1,14.3-17V322.2z M272.8,320.7c4.8,2.3,9.8,3.5,15.1,3.6v10.2h-17.8C270.3,329.8,271.1,325.1,272.8,320.7
	L272.8,320.7z M287.9,336.7v10.2c-5.3,0.1-10.4,1.4-15.1,3.6c-1.6-4.4-2.5-9-2.6-13.8H287.9z M290.4,349.1c5,0.2,9.8,1.3,14.3,3.5
	c-3.1,7.1-8.1,13.1-14.3,17V349.1z M305.5,350.5c-4.8-2.3-9.8-3.5-15.1-3.6v-10.2h17.8C308,341.5,307.2,346.1,305.5,350.5
	L305.5,350.5z M315,311.1c-2.5,2.6-5.3,4.8-8.4,6.5c-3.2-7.2-8.2-13.3-14.4-17.4C300.9,300.9,309,304.8,315,311.1L315,311.1z
	 M286.1,300.2c-6.2,4.2-11.3,10.2-14.4,17.4c-3.1-1.7-5.9-3.9-8.4-6.5C269.3,304.8,277.4,300.9,286.1,300.2L286.1,300.2z
	 M261.8,312.8c2.6,2.8,5.7,5.1,9,6.9c-1.8,4.7-2.8,9.7-2.9,14.8h-14.5C253.7,326.6,256.6,318.9,261.8,312.8L261.8,312.8z
	 M253.5,336.7h14.5c0.1,5.1,1.1,10.1,2.9,14.8c-3.4,1.8-6.4,4.2-9,6.9C256.6,352.4,253.7,344.7,253.5,336.7L253.5,336.7z
	 M263.3,360.1c2.5-2.6,5.3-4.8,8.4-6.5c3.2,7.2,8.2,13.3,14.4,17.4C277.4,370.3,269.3,366.5,263.3,360.1L263.3,360.1z M292.2,371
	c6.2-4.2,11.3-10.2,14.4-17.4c3.1,1.7,5.9,3.9,8.4,6.5C309,366.5,300.9,370.3,292.2,371L292.2,371z M316.5,358.5
	c-2.7-2.8-5.7-5.1-9-6.9c1.8-4.7,2.8-9.7,2.9-14.8h14.5C324.6,344.7,321.7,352.4,316.5,358.5L316.5,358.5z M316.5,358.5"/>
</svg>
