<?xml version="1.0" encoding="utf-8"?>
<!-- Generator: Adobe Illustrator 27.0.0, SVG Export Plug-In . SVG Version: 6.00 Build 0)  -->
<svg version="1.1" id="Layer_1" xmlns="http://www.w3.org/2000/svg" xmlns:xlink="http://www.w3.org/1999/xlink" x="0px" y="0px"
	 viewBox="0 0 600 600" style="enable-background:new 0 0 600 600;" xml:space="preserve">
<style type="text/css">
	.st0{fill:#FFFFFF;}
</style>
<path class="st0" d="M279.7,360.7c-3.1,1.7-5.9,3.9-8.4,6.5c6,6.4,14.1,10.2,22.8,10.9C287.9,374,282.9,367.9,279.7,360.7z"/>
<path class="st0" d="M295.9,376.7v-20.5c-5,0.2-9.8,1.3-14.3,3.5C284.7,366.8,289.7,372.8,295.9,376.7z"/>
<path class="st0" d="M278.1,341.6h17.8v-10.2c-5.3-0.1-10.3-1.3-15.1-3.6C279.1,332.2,278.3,336.9,278.1,341.6z"/>
<path class="st0" d="M298.4,308.8v20.5c5-0.2,9.8-1.3,14.3-3.5C309.6,318.7,304.6,312.8,298.4,308.8z"/>
<path class="st0" d="M314.6,324.7c3.1-1.7,5.9-3.9,8.4-6.5c-6-6.3-14.1-10.2-22.8-10.9C306.4,311.4,311.4,317.5,314.6,324.7z"/>
<path class="st0" d="M281.6,325.8c4.5,2.2,9.3,3.3,14.3,3.5v-20.5C289.7,312.7,284.7,318.7,281.6,325.8z"/>
<path class="st0" d="M280.8,357.6c4.7-2.2,9.8-3.5,15.1-3.6v-10.2h-17.7C278.3,348.6,279.2,353.2,280.8,357.6z"/>
<path class="st0" d="M77.5,256.7H58.8v16.2H78c7.2,0,11.5-2.5,11.5-8v-0.2C89.5,259.8,85.8,256.7,77.5,256.7z"/>
<path class="st0" d="M85.4,235.4v-0.2c0-4.8-3.8-7.6-10.6-7.6h-16v15.6h14.9C80.9,243.2,85.4,240.9,85.4,235.4z"/>
<path class="st0" d="M276,343.8h-14.5c0.2,8,3.1,15.7,8.4,21.7c2.6-2.7,5.6-5.1,9-6.9C277.1,353.9,276.1,348.9,276,343.8z"/>
<path class="st0" d="M234.6,238.9v-0.3c0-7-4.8-10.5-12.7-10.5h-16.1v21.2h16.4C230.1,249.3,234.6,245.1,234.6,238.9z"/>
<path class="st0" d="M278.8,326.8c-3.3-1.8-6.4-4.1-9-6.9c-5.2,6.1-8.1,13.8-8.4,21.7h14.5C276,336.5,277,331.5,278.8,326.8z"/>
<path class="st0" d="M294.1,307.3c-8.7,0.7-16.8,4.6-22.8,10.9c2.5,2.6,5.3,4.8,8.4,6.5C282.8,317.5,287.9,311.5,294.1,307.3z"/>
<path class="st0" d="M313.5,357.6c1.7-4.4,2.5-9,2.7-13.8h-17.8V354C303.7,354.1,308.7,355.3,313.5,357.6z"/>
<path class="st0" d="M382,350h-18.7v16.2h19.3c7.2,0,11.5-2.5,11.5-8V358H394C394,353.1,390.3,350,382,350z"/>
<polygon class="st0" points="446.2,349.6 465.8,349.6 456,325.7 "/>
<path class="st0" d="M300.5,7.1C139,7.1,8,138,8,299.6c0,161.5,131,292.5,292.5,292.5S593,461.1,593,299.6
	C593,138,462,7.1,300.5,7.1z M418.7,213.4h14.9l34.5,45.4v-45.4h16v73.7h-13.7l-35.7-46.9v46.9h-16V213.4z M348.2,213.4h55.6v14.4
	h-39.5v14.9H399v14.4h-34.7v15.5h40v14.5h-56.1V213.4z M262.4,250.3c0-21,16.3-38.1,38.6-38.1c13.3,0,21.3,3.6,29,10.1l-10.2,12.3
	c-5.7-4.7-10.7-7.5-19.3-7.5c-11.8,0-21.2,10.4-21.2,23v0.2c0,13.5,9.3,23.4,22.3,23.4c5.9,0,11.2-1.5,15.3-4.4v-10.5h-16.3v-14h32
	v32c-7.6,6.3-18,11.6-31.5,11.6c-23,0-38.7-16.1-38.7-37.9V250.3z M119,213.4h55.6v14.4h-39.5v14.9h34.7v14.4h-34.7v15.5h40v14.5
	H119V213.4z M105.6,266.9c0,13.5-10.9,20.2-27.6,20.2H43v-73.7h34.2c15.1,0,24.3,7.5,24.3,19.1v0.2c0,8.3-4.4,13-9.7,15.9
	c8.5,3.3,13.8,8.2,13.8,18.1V266.9z M186.3,370c-7.6,6.4-18,11.7-31.5,11.7c-23,0-38.7-16.1-38.7-37.9v-0.2
	c0-21,16.3-38.1,38.6-38.1c13.3,0,21.3,3.6,29,10.1l-10.2,12.3c-5.7-4.7-10.7-7.5-19.3-7.5c-11.8,0-21.2,10.4-21.2,22.9v0.2
	c0,13.5,9.3,23.4,22.3,23.4c5.9,0,11.2-1.5,15.3-4.4V352h-16.3v-14h32V370z M189.6,213.4h33.7c17.4,0,27.8,9.2,27.8,24.3v0.2
	c0,11.9-6.4,19.4-15.8,22.8l18,26.3h-19v0.1l-15.8-23.6h-12.7v23.6h-16.2V213.4z M254.8,380.4h-52.9v-73.7h16.2v59h36.7V380.4z
	 M334.9,341.6v1.2v1c-0.2,8.9-3.6,17.4-9.6,24.1c-7,7.8-16.9,12.3-27.3,12.5h-1.9c-10.4-0.2-20.3-4.7-27.3-12.5
	c-6-6.7-9.3-15.2-9.6-24.1v-2.2c0.2-8.9,3.6-17.4,9.6-24.1c7-7.8,16.9-12.3,27.3-12.5h1.9c10.4,0.2,20.3,4.7,27.3,12.5
	C331.3,324.2,334.7,332.7,334.9,341.6L334.9,341.6z M410,360.2c0.1,13.5-10.9,20.2-27.5,20.2h-35.1v-73.7h34.2
	c15.1,0,24.3,7.5,24.3,19.1v0.2c0,8.3-4.4,12.9-9.7,15.9c8.5,3.3,13.8,8.2,13.8,18.1V360.2z M478.3,380.4l-6.7-16.5h-31.2l-6.7,16.5
	h-16.5l31.6-74.2h14.9l31.6,74.2H478.3z M506.6,380.4v-73.7h16.2v59h36.7v14.7H506.6z"/>
<path class="st0" d="M389.9,328.7v-0.2c0-4.8-3.8-7.6-10.6-7.6h-16v15.6h14.9C385.4,336.5,389.9,334.2,389.9,328.7z"/>
<path class="st0" d="M313.5,327.9c-4.7,2.2-9.8,3.5-15.1,3.6h-0.1v10.2h17.8C316,336.9,315.1,332.3,313.5,327.9z"/>
<path class="st0" d="M312.7,359.7c-4.5-2.2-9.3-3.3-14.3-3.5v20.5C304.6,372.8,309.6,366.8,312.7,359.7z"/>
<path class="st0" d="M315.5,358.7c3.3,1.8,6.3,4.1,9,6.9c5.2-6.1,8.1-13.8,8.4-21.7h-14.5C318.3,349,317.3,354,315.5,358.7z"/>
<path class="st0" d="M300.2,378.1c8.7-0.7,16.8-4.5,22.8-10.9c-2.5-2.6-5.3-4.8-8.4-6.5C311.5,367.9,306.4,373.9,300.2,378.1z"/>
<path class="st0" d="M315.4,326.8c1.8,4.7,2.8,9.7,2.9,14.8h14.5c-0.2-7.9-3.1-15.6-8.4-21.7C321.8,322.6,318.8,325,315.4,326.8z"/>
</svg>
