<?xml version="1.0" encoding="utf-8"?>
<!-- Generator: Adobe Illustrator 27.0.0, SVG Export Plug-In . SVG Version: 6.00 Build 0)  -->
<svg version="1.1" id="Layer_1" xmlns="http://www.w3.org/2000/svg" xmlns:xlink="http://www.w3.org/1999/xlink" x="0px" y="0px"
	 viewBox="0 0 600 600" style="enable-background:new 0 0 600 600;" xml:space="preserve">
<style type="text/css">
	.st0{fill:#E36C5C;}
	.st1{fill:#FFFFFF;}
	.st2{fill:#FFFFFF;stroke:#FFFFFF;stroke-width:0.8;stroke-miterlimit:10;}
</style>
<path class="st0" d="M593,299.6c0,161.5-131,292.5-292.5,292.5S8,461.1,8,299.6C8,138,139,7.1,300.5,7.1S593,138,593,299.6z"/>
<g>
	<path class="st1" d="M78,287.1H43v-73.7h34.2c15.1,0,24.3,7.5,24.3,19.1v0.2c0,8.3-4.4,13-9.7,15.9c8.5,3.3,13.8,8.2,13.8,18.1v0.2
		C105.6,280.4,94.7,287.1,78,287.1z M85.4,235.2c0-4.8-3.8-7.6-10.6-7.6h-16v15.6h14.9c7.2,0,11.7-2.3,11.7-7.8V235.2z M89.5,264.7
		c0-4.9-3.7-8-12-8H58.8v16.2H78c7.2,0,11.5-2.5,11.5-8V264.7z"/>
	<path class="st1" d="M119,287.1v-73.7h55.6v14.4h-39.5v14.9h34.7v14.4h-34.7v15.5h40v14.5H119z"/>
	<path class="st1" d="M234.3,287.1l-15.8-23.6h-12.7v23.6h-16.2v-73.7h33.7c17.4,0,27.8,9.2,27.8,24.3v0.2
		c0,11.9-6.4,19.4-15.8,22.8l18,26.3h-19V287.1z M234.6,238.6c0-7-4.8-10.5-12.7-10.5h-16.1v21.2h16.4c7.9,0,12.4-4.2,12.4-10.4
		L234.6,238.6L234.6,238.6z"/>
	<path class="st1" d="M301.1,288.4c-23,0-38.7-16.1-38.7-37.9v-0.2c0-21,16.3-38.1,38.6-38.1c13.3,0,21.3,3.6,29,10.1l-10.2,12.3
		c-5.7-4.7-10.7-7.5-19.3-7.5c-11.8,0-21.2,10.4-21.2,23v0.2c0,13.5,9.3,23.4,22.3,23.4c5.9,0,11.2-1.5,15.3-4.4v-10.5h-16.3v-14h32
		v32C325,283.1,314.6,288.4,301.1,288.4z"/>
	<path class="st1" d="M348.2,287.1v-73.7h55.6v14.4h-39.5v14.9H399v14.4h-34.7v15.5h40v14.5H348.2z"/>
	<path class="st1" d="M470.4,287.1l-35.7-46.9v46.9h-16v-73.7h14.9l34.5,45.4v-45.4h16v73.7H470.4z"/>
</g>
<path class="st1" d="M154.8,381.7c-23,0-38.7-16.1-38.7-37.9v-0.2c0-21,16.3-38.1,38.6-38.1c13.3,0,21.3,3.6,29,10.1l-10.2,12.3
	c-5.7-4.7-10.7-7.5-19.3-7.5c-11.8,0-21.2,10.4-21.2,22.9v0.2c0,13.5,9.3,23.4,22.3,23.4c5.9,0,11.2-1.5,15.3-4.4V352h-16.3v-14h32
	v32C178.7,376.4,168.3,381.7,154.8,381.7z"/>
<path class="st1" d="M201.9,380.4v-73.7h16.2v59h36.7v14.7H201.9z"/>
<path class="st1" d="M382.5,380.4h-35.1v-73.7h34.2c15.1,0,24.3,7.5,24.3,19.1v0.2c0,8.3-4.4,12.9-9.7,15.9
	c8.5,3.3,13.8,8.2,13.8,18.1v0.2C410.1,373.7,399.1,380.4,382.5,380.4z M389.9,328.5c0-4.8-3.8-7.6-10.6-7.6h-16v15.6h14.9
	c7.2,0,11.7-2.3,11.7-7.8V328.5z M394,358c0-4.9-3.7-8-12-8h-18.7v16.2h19.3c7.2,0,11.5-2.5,11.5-8L394,358L394,358z"/>
<path class="st1" d="M478.3,380.4l-6.7-16.5h-31.2l-6.7,16.5h-16.5l31.6-74.2h14.9l31.6,74.2H478.3z M456,325.7l-9.8,23.9h19.6
	L456,325.7z"/>
<path class="st1" d="M506.6,380.4v-73.7h16.2v59h36.7v14.7H506.6z"/>
<path class="st2" d="M335,341.6L335,341.6c-0.3-8.9-3.7-17.4-9.7-24.1c-7-7.8-16.9-12.3-27.3-12.5l0,0h-1.9l0,0
	c-10.4,0.2-20.3,4.7-27.3,12.5c-6,6.7-9.4,15.2-9.6,24.1l0,0v2.2l0,0c0.3,8.9,3.6,17.4,9.6,24.1c7,7.8,16.9,12.3,27.3,12.5l0,0h1.9
	l0,0c10.4-0.2,20.3-4.7,27.3-12.5c6-6.7,9.4-15.2,9.6-24.1l0,0v-1l0,0v-1.2H335z M332.8,341.6h-14.5c-0.1-5.1-1.1-10.1-2.9-14.8
	c3.4-1.8,6.4-4.2,9-6.9C329.7,326,332.6,333.7,332.8,341.6L332.8,341.6z M281.6,359.7c4.5-2.2,9.3-3.3,14.3-3.5v20.5
	C289.7,372.8,284.7,366.8,281.6,359.7L281.6,359.7z M298.4,331.5c5.3-0.1,10.4-1.4,15.1-3.6c1.6,4.4,2.5,9,2.6,13.8h-17.8
	L298.4,331.5L298.4,331.5z M298.4,329.3v-20.5c6.2,4,11.2,9.9,14.3,17C308.2,328,303.4,329.1,298.4,329.3L298.4,329.3z M295.9,329.3
	c-5-0.2-9.8-1.3-14.3-3.5c3.1-7.1,8.1-13.1,14.3-17V329.3z M280.8,327.8c4.8,2.3,9.8,3.5,15.1,3.6v10.2h-17.8
	C278.3,336.9,279.1,332.2,280.8,327.8L280.8,327.8z M295.9,343.8V354c-5.3,0.1-10.4,1.4-15.1,3.6c-1.6-4.4-2.5-9-2.6-13.8
	L295.9,343.8L295.9,343.8z M298.4,356.2c5,0.2,9.8,1.3,14.3,3.5c-3.1,7.1-8.1,13.1-14.3,17V356.2z M313.5,357.6
	c-4.8-2.3-9.8-3.5-15.1-3.6v-10.2h17.8C316,348.6,315.2,353.2,313.5,357.6L313.5,357.6z M323,318.2c-2.5,2.6-5.3,4.8-8.4,6.5
	c-3.2-7.2-8.2-13.3-14.4-17.4C308.9,308,317,311.9,323,318.2L323,318.2z M294.1,307.3c-6.2,4.2-11.3,10.2-14.4,17.4
	c-3.1-1.7-5.9-3.9-8.4-6.5C277.3,311.9,285.4,308,294.1,307.3L294.1,307.3z M269.8,319.9c2.6,2.8,5.7,5.1,9,6.9
	c-1.8,4.7-2.8,9.7-2.9,14.8h-14.5C261.7,333.7,264.6,326,269.8,319.9L269.8,319.9z M261.5,343.8H276c0.1,5.1,1.1,10.1,2.9,14.8
	c-3.4,1.8-6.4,4.2-9,6.9C264.6,359.5,261.7,351.8,261.5,343.8L261.5,343.8z M271.3,367.2c2.5-2.6,5.3-4.8,8.4-6.5
	c3.2,7.2,8.2,13.3,14.4,17.4C285.4,377.4,277.3,373.6,271.3,367.2L271.3,367.2z M300.2,378.1c6.2-4.2,11.3-10.2,14.4-17.4
	c3.1,1.7,5.9,3.9,8.4,6.5C317,373.6,308.9,377.4,300.2,378.1L300.2,378.1z M324.5,365.6c-2.7-2.8-5.7-5.1-9-6.9
	c1.8-4.7,2.8-9.7,2.9-14.8h14.5C332.6,351.8,329.7,359.5,324.5,365.6L324.5,365.6z"/>
</svg>
