<?xml version="1.0" encoding="utf-8"?>
<!-- Generator: Adobe Illustrator 26.5.0, SVG Export Plug-In . SVG Version: 6.00 Build 0)  -->
<svg version="1.1" id="Layer_1" xmlns="http://www.w3.org/2000/svg" xmlns:xlink="http://www.w3.org/1999/xlink" x="0px" y="0px"
	 viewBox="0 0 600 600" style="enable-background:new 0 0 600 600;" xml:space="preserve">
<style type="text/css">
	.st0{fill:#E54639;}
	.st1{fill:#FFFFFF;stroke:#FFFFFF;stroke-width:0.8;stroke-miterlimit:10;}
</style>
<path class="st0" d="M587.8,300c0,159.6-129.4,289-289,289c-159.6,0-289-129.4-289-289c0-159.6,129.4-289,289-289
	C458.4,11,587.8,140.4,587.8,300z"/>
<path class="st1" d="M572.2,292.1H572c-1.9-64.4-26.4-125.9-69.6-174c-50.4-56-121.9-88.6-196.9-90.2v-0.1H292v0.1
	C217,29.5,145.4,62.1,95.1,118.1c-43.2,48.1-67.7,109.6-69.5,174h-0.2v15.8h0.2c1.8,64.4,26.3,125.9,69.6,174
	c50.3,56.1,121.8,88.7,196.9,90.2v0.2h13.4v-0.2c75.1-1.6,146.6-34.1,196.9-90.2c43.2-48.1,67.7-109.6,69.6-174h0.2v-7.6
	c0-0.1,0-0.2,0-0.3V292.1z M556.2,292.1H451.8c-0.8-36.9-7.8-72.8-20.8-106.8c24.3-13.3,46.2-30.1,65.3-50.1
	C533.4,179.3,554.5,234.4,556.2,292.1L556.2,292.1z M186.6,422.2c32.4-15.7,67-24.1,103.1-25.2v148.2
	C245,516.7,208.9,473.6,186.6,422.2L186.6,422.2z M307.9,218.8c38.1-1.1,74.7-9.9,109-26.3c11.8,31.8,18.3,65.2,19.1,99.6H307.9
	V218.8z M307.9,203V54.8c44.6,28.5,80.8,71.6,103.1,123C378.5,193.4,343.9,201.9,307.9,203L307.9,203z M289.7,203
	c-36-1.1-70.7-9.5-103.1-25.2c22.4-51.4,58.5-94.5,103.1-123V203z M180.7,192.5c34.3,16.4,70.9,25.2,109,26.3v73.3H161.6
	C162.4,257.7,168.8,224.2,180.7,192.5L180.7,192.5z M289.7,307.9v73.3c-38.1,1-74.7,9.9-109,26.3c-11.9-31.8-18.3-65.2-19.1-99.6
	H289.7z M307.9,397c36,1.1,70.7,9.6,103.1,25.2c-22.3,51.4-58.5,94.5-103.1,123V397z M416.9,407.5c-34.3-16.4-70.9-25.3-109-26.3
	v-73.3H436C435.2,342.3,428.7,375.7,416.9,407.5L416.9,407.5z M485.6,123.3c-17.7,18.7-38.1,34.5-60.6,47.1
	c-22.9-52-59.3-95.9-104.2-125.9C383.3,49.6,442.1,77.6,485.6,123.3L485.6,123.3z M276.7,44.4c-44.9,30-81.3,73.9-104.2,125.9
	c-22.5-12.6-42.8-28.4-60.6-47.1C155.4,77.6,214.2,49.6,276.7,44.4L276.7,44.4z M101.2,135.2c19.1,19.9,41,36.7,65.3,50.1
	c-12.9,34.1-19.9,69.9-20.8,106.8H41.3C43.1,234.4,64.2,179.3,101.2,135.2L101.2,135.2z M41.3,307.9h104.5
	c0.9,37,7.9,72.8,20.8,106.8c-24.3,13.3-46.2,30.2-65.3,50.1C64.2,420.6,43.1,365.5,41.3,307.9L41.3,307.9z M111.9,476.7
	c17.8-18.7,38.1-34.4,60.6-47.1c22.8,52.1,59.2,95.9,104.1,125.9C214.2,550.4,155.4,522.4,111.9,476.7L111.9,476.7z M320.8,555.5
	c44.9-30,81.3-73.8,104.2-125.9c22.5,12.6,42.9,28.4,60.6,47.1C442.1,522.4,383.3,550.4,320.8,555.5L320.8,555.5z M496.3,464.8
	c-19.1-19.9-41-36.7-65.3-50.1c12.9-34,19.9-69.9,20.8-106.8h104.5C554.5,365.5,533.4,420.6,496.3,464.8L496.3,464.8z M496.3,464.8"
	/>
</svg>
