<?xml version="1.0" encoding="utf-8"?>
<!-- Generator: Adobe Illustrator 26.5.0, SVG Export Plug-In . SVG Version: 6.00 Build 0)  -->
<svg version="1.1" id="Layer_1" xmlns="http://www.w3.org/2000/svg" xmlns:xlink="http://www.w3.org/1999/xlink" x="0px" y="0px"
	 viewBox="0 0 109.3 25.3" style="enable-background:new 0 0 109.3 25.3;" xml:space="preserve">
<g>
	<path d="M61.5,0.4c0.8,0,1.4,0.1,1.9,0.3v1.3c-0.8-0.3-1.4-0.4-1.9-0.4c-1.1,0-1.5,1-1.5,2.3c0,1.3,0.4,2.3,1.5,2.3
		c0.5,0,1.1-0.1,1.9-0.4v1.3c-0.5,0.2-1.1,0.3-1.9,0.3c-2.1,0-2.7-1.6-2.7-3.5C58.8,2,59.5,0.4,61.5,0.4z"/>
	<path d="M68.4,7.3V4.4h-2.3v2.9h-1.2V0.6h1.2v2.6h2.3V0.6h1.2v6.7H68.4z"/>
	<path d="M72.5,7.3h-1.2V0.6h2.2c1.8,0,2.3,0.8,2.3,2c0,0.8-0.2,1.5-1,1.8c0.1,0.3,0.3,0.6,0.5,0.9c0.3,0.6,0.8,1.5,1,2h-1.5
		l-1.3-2.6h-1.1V7.3z M72.5,3.4h1.1c0.8,0,0.9-0.4,0.9-0.8c0-0.5-0.1-0.8-0.9-0.8h-1.1V3.4z"/>
	<path d="M77.8,6c0.4,0,0.7,0.3,0.7,0.7c0,0.4-0.3,0.7-0.7,0.7c-0.4,0-0.7-0.3-0.7-0.7C77,6.3,77.4,6,77.8,6z"/>
	<path d="M62.5,15.1h-0.9l-1.5-3.4l0,4.3h-1.2V9.3h1.4l1.8,4.1l1.8-4.1h1.4V16h-1.2l0-4.3L62.5,15.1z"/>
	<path d="M66.8,16V9.3h1.2V16H66.8z"/>
	<path d="M72.3,9.2c0.8,0,1.4,0.1,1.9,0.3v1.3c-0.8-0.3-1.4-0.4-1.9-0.4c-1.1,0-1.5,1-1.5,2.3c0,1.3,0.4,2.3,1.5,2.3
		c0.5,0,1.1-0.1,1.9-0.4v1.3c-0.5,0.2-1.1,0.3-1.9,0.3c-2.1,0-2.7-1.6-2.7-3.5C69.6,10.7,70.3,9.2,72.3,9.2z"/>
	<path d="M79.2,16v-2.9h-2.3V16h-1.2V9.3h1.2v2.6h2.3V9.3h1.2V16H79.2z"/>
	<path d="M85.9,13.1h-2.7v1.7h2.9V16h-4.2V9.3h4.2v1.2h-2.9v1.4h2.7V13.1z"/>
	<path d="M88.9,14.8h2.8V16h-4V9.3h1.2V14.8z"/>
	<path d="M97.4,13.9c0,1-0.5,2.2-2.6,2.2c-0.6,0-1.6-0.2-2-0.4v-1.2c0.3,0.2,1.1,0.5,2,0.5c1,0,1.3-0.5,1.3-1c0-0.6-0.3-0.7-1.1-0.8
		c-1.6-0.2-2.2-0.7-2.2-1.9c0-0.8,0.4-2.1,2.4-2.1c0.8,0,1.4,0.2,1.9,0.4v1.3c-0.9-0.4-1.4-0.5-1.9-0.5c-0.9,0-1.1,0.4-1.1,0.9
		c0,0.5,0.4,0.6,1.2,0.7C96.7,12.1,97.4,12.6,97.4,13.9z"/>
	<path d="M102.7,13.1H100v1.7h2.9V16h-4.2V9.3h4.2v1.2H100v1.4h2.7V13.1z"/>
	<path d="M108.3,16l-2.7-4.2l0,4.2h-1.2V9.3h1l2.7,4.2l0-4.2h1.2V16H108.3z"/>
	<path d="M59,24.7V18h1.2v6.7H59z"/>
	<path d="M65.8,24.7l-2.7-4.2l0,4.2h-1.2V18h1l2.7,4.2l0-4.2h1.2v6.7H65.8z"/>
	<path d="M72.8,22.6c0,1-0.5,2.2-2.6,2.2c-0.6,0-1.6-0.2-2-0.4v-1.2c0.3,0.2,1.1,0.5,2,0.5c1,0,1.3-0.5,1.3-1c0-0.6-0.3-0.7-1.1-0.8
		c-1.6-0.2-2.2-0.7-2.2-1.9c0-0.8,0.4-2.1,2.4-2.1c0.8,0,1.4,0.2,1.9,0.4v1.3c-0.9-0.4-1.4-0.5-1.9-0.5c-0.9,0-1.1,0.4-1.1,0.9
		c0,0.5,0.4,0.6,1.2,0.7C72.1,20.8,72.8,21.3,72.8,22.6z"/>
	<path d="M76.6,19.2v5.5h-1.2v-5.5h-1.7V18h4.6v1.2H76.6z"/>
	<path d="M79.6,24.7V18h1.2v6.7H79.6z"/>
	<path d="M85.1,19.2v5.5h-1.2v-5.5h-1.7V18h4.6v1.2H85.1z"/>
	<path d="M91.8,22.4V18H93v4.5c0,2-1.6,2.3-2.5,2.3c-0.8,0-2.5-0.3-2.5-2.3V18h1.2v4.4c0,1.1,0.8,1.2,1.2,1.2
		C90.9,23.6,91.8,23.5,91.8,22.4z"/>
	<path d="M97.1,19.2v5.5h-1.2v-5.5h-1.7V18h4.6v1.2H97.1z"/>
	<path d="M104,21.8h-2.7v1.7h2.9v1.2h-4.2V18h4.2v1.2h-2.9v1.5h2.7V21.8z"/>
</g>
<g>
	<path d="M10,0c2.8,0,5.3,0.3,7.1,1.1v5.7c-3.4-1.4-5.4-1.5-7.1-1.5c-3.3,0-4.4,2.9-4.4,7.4c0,4.4,1.1,7.4,4.4,7.4
		c1.8,0,3.7-0.1,7.1-1.5v5.7c-1.8,0.8-4.4,1.1-7.1,1.1c-7.5,0-10-5.2-10-12.7C0,5.2,2.4,0,10,0z"/>
	<path d="M34,21.9h-3.9L26,12.4l0.2,12.3h-5.4V0.6h5.7l5.6,13.2l5.6-13.2h5.7v24.2H38l0.2-12.4L34,21.9z"/>
	<path d="M47.9,24.8V0.6h5.5v24.2H47.9z"/>
</g>
</svg>
