<?xml version="1.0" encoding="utf-8"?>
<!-- Generator: Adobe Illustrator 26.5.0, SVG Export Plug-In . SVG Version: 6.00 Build 0)  -->
<svg version="1.1" id="UiBmerke_grayscale" xmlns="http://www.w3.org/2000/svg" xmlns:xlink="http://www.w3.org/1999/xlink" x="0px"
	 y="0px" viewBox="0 0 298.1 99.1" style="enable-background:new 0 0 298.1 99.1;" xml:space="preserve">
<g>
	<g>
		<g>
			<path d="M120.9,28.2c-0.6-0.1-1.8-0.3-2.1-0.2c-0.1,0.1-0.2,0.2-0.3,0.5l-0.1,0.3c-0.1,0-0.2,0-0.2-0.1c0.1-0.4,0.2-0.8,0.2-1.2
				c0.1-0.4,0.1-0.7,0.2-1.1c0.1-0.1,0.2,0,0.2,0l0,0.3c0,0.3,0,0.5,0.2,0.6c0.3,0.2,1.5,0.4,2.1,0.5l1.2,0.2
				c0.9,0.2,1.8,0.5,2.3,1.1c0.4,0.5,0.5,1.3,0.4,2.1c-0.1,0.7-0.4,1.4-0.9,1.8c-0.5,0.5-1.3,0.6-2.5,0.4l-2.4-0.4
				c-1.1-0.2-1.2-0.2-1.4,0.4l-0.1,0.3c-0.1,0.1-0.2,0-0.2-0.1c0.1-0.5,0.2-0.9,0.2-1.3c0.1-0.4,0.1-0.8,0.2-1.3c0-0.1,0.2,0,0.2,0
				l0,0.2c-0.1,0.6,0.1,0.7,1.2,0.8l2.2,0.4c1.6,0.3,2.8,0,3.1-1.6c0.3-1.5-0.8-2.2-2.4-2.5L120.9,28.2z"/>
			<path d="M127.3,19.9c0.3,0.2,1.3,0.8,1.6,0.9c0,0,0.1,0.1,0,0.2c-0.2,0-0.7,0.1-2,0.4l-3.6,0.8c-0.4,0.1-1.5,0.3-1.8,0.4l0,0
				c0.1,0.1,0.3,0.2,0.6,0.4l2,1.1c0.4,0.2,1.6,0.9,2,0.9c0.1,0,0.3-0.1,0.4-0.4l0.2-0.3c0.1,0,0.2,0.1,0.2,0.1
				c-0.2,0.4-0.4,0.7-0.6,1c-0.2,0.4-0.3,0.6-0.5,1c-0.1,0-0.2,0-0.2-0.1l0.1-0.3c0.1-0.2,0.1-0.4,0-0.5c-0.3-0.3-1.4-0.9-1.8-1.2
				l-2.6-1.5c-0.3-0.1-0.4-0.2-0.8-0.2c-0.2,0.1-0.4,0.2-0.5,0.4l-0.1,0.1c-0.1,0-0.2-0.1-0.2-0.1c0.2-0.4,0.5-0.8,0.6-1
				c0.1-0.1,0.2-0.3,0.2-0.4c0.6,0.1,2.4-0.3,2.9-0.4l1.5-0.3c1-0.2,1.8-0.4,2.5-0.6l0,0c0-0.1-0.2-0.1-0.4-0.2l-1.9-1.1
				c-0.4-0.2-1.6-0.9-2-0.9c-0.1,0-0.2,0.1-0.5,0.5l-0.1,0.1c-0.1,0-0.2-0.1-0.2-0.1c0.3-0.4,0.4-0.7,0.6-1.1
				c0.2-0.4,0.3-0.6,0.5-0.9c0.1,0,0.2,0,0.2,0.1l-0.1,0.1c-0.1,0.3-0.1,0.5-0.1,0.6c0.2,0.3,1.4,0.9,1.8,1.2L127.3,19.9z"/>
			<path d="M127.3,14.7c-0.8-0.8-0.9-0.9-1.4-0.5l-0.2,0.2c-0.1,0-0.2-0.1-0.2-0.2c0.4-0.4,0.6-0.6,0.9-0.9c0.3-0.3,0.5-0.6,0.9-0.9
				c0.1,0,0.2,0.1,0.2,0.2l-0.2,0.2c-0.4,0.5-0.3,0.6,0.5,1.4l2.7,2.6c0.8,0.8,0.9,0.9,1.4,0.5l0.2-0.2c0.1,0,0.2,0.1,0.2,0.2
				c-0.4,0.4-0.6,0.6-0.9,0.9c-0.3,0.3-0.5,0.6-0.9,1c-0.1,0-0.2-0.1-0.2-0.2l0.2-0.2c0.4-0.5,0.3-0.6-0.5-1.4L127.3,14.7z"/>
			<path d="M131,10.6c-0.5-0.4-0.8-0.5-1.2-0.3l-0.2,0.1c-0.1,0-0.2-0.1-0.1-0.2c0.3-0.1,0.6-0.3,0.9-0.5c0.4-0.2,0.7-0.4,1-0.7
				c0.1,0,0.2,0.1,0.2,0.2l-0.1,0.1c-0.3,0.3-0.3,0.4-0.3,0.4c0.1,0.1,0.5,0.5,1.2,1c1,0.8,2.1,1.5,3.2,2.2
				c-0.1-0.8-0.3-1.9-0.4-2.5c-0.1-0.8-0.3-2-0.4-2.5c0-0.2-0.1-0.3-0.1-0.4c0-0.1-0.2-0.1-0.5,0.1L134,7.7c-0.1,0-0.2-0.2-0.1-0.2
				c0.3-0.1,0.6-0.3,0.9-0.5c0.3-0.2,0.6-0.4,0.8-0.6c0.1,0,0.2,0.1,0.2,0.2l-0.3,0.2c-0.2,0.1-0.3,0.3-0.3,0.6
				c0,0.6,0.1,1.5,0.3,2.6l0.2,1.4c0.2,1,0.4,2.3,0.5,2.9c0,0,0,0.1-0.1,0.1c0,0-0.1,0-0.1,0.1c-0.3-0.3-0.8-0.6-1.1-0.9L131,10.6z"
				/>
			<path d="M139.7,6.6c-0.3-1-0.4-1.2-1-1.1l-0.2,0c-0.1,0-0.1-0.2-0.1-0.3c0.4-0.1,0.8-0.2,1.2-0.3l1.9-0.5
				c0.6-0.2,1.2-0.3,1.3-0.4c0.1,0.2,0.4,0.9,0.5,1.3c0,0.1-0.2,0.1-0.2,0.1c-0.3-0.4-0.5-0.7-1-0.7c-0.2,0-0.5,0.1-1,0.2l-0.7,0.2
				c-0.3,0.1-0.3,0.1-0.2,0.5l0.6,2c0.1,0.3,0.1,0.3,0.4,0.2l0.6-0.2c0.4-0.1,0.7-0.2,0.8-0.3c0.1-0.1,0.2-0.2,0.1-0.4l0-0.4
				c0-0.1,0.2-0.1,0.3-0.1c0.1,0.2,0.1,0.6,0.2,1c0.1,0.4,0.2,0.7,0.3,0.9c0,0.1-0.2,0.1-0.3,0.1l-0.2-0.4c-0.1-0.2-0.2-0.3-0.4-0.3
				c-0.2,0-0.4,0.1-0.8,0.2l-0.6,0.2c-0.3,0.1-0.3,0.1-0.3,0.4l0.4,1.4c0.1,0.5,0.3,0.9,0.5,1c0.2,0.1,0.4,0.1,1.3-0.1
				c0.8-0.2,1-0.3,1.2-0.5c0.2-0.2,0.3-0.6,0.4-1.2c0.1-0.1,0.2-0.1,0.3,0c0,0.4,0,1.2-0.1,1.5c-0.9,0.2-1.8,0.5-2.7,0.7l-0.9,0.3
				c-0.4,0.1-0.8,0.2-1.3,0.4c-0.1,0-0.1-0.2-0.1-0.2l0.3-0.1c0.6-0.2,0.6-0.4,0.3-1.4L139.7,6.6z"/>
			<path d="M147.8,5c0-1,0-1.2-0.4-1.2l-0.3,0c-0.1-0.1-0.1-0.2,0-0.3c0.6,0,1.3-0.1,2.3-0.1c0.6,0,1.3,0.1,1.7,0.3
				c0.5,0.3,0.9,0.7,0.9,1.5c0,1-0.8,1.5-1.3,1.7c-0.1,0.1,0,0.2,0.1,0.2c0.8,1.3,1.4,2.2,2.1,2.8c0.2,0.2,0.4,0.3,0.7,0.3
				c0.1,0,0.1,0.1,0,0.1c-0.1,0-0.3,0-0.5,0c-0.9,0-1.4-0.3-2.1-1.3c-0.3-0.4-0.7-1.1-1-1.6c-0.2-0.2-0.3-0.3-0.7-0.3
				c-0.5,0-0.5,0-0.5,0.2l0,1.3c0,1.1,0,1.2,0.6,1.3l0.2,0c0.1,0.1,0,0.2,0,0.3c-0.5,0-0.8,0-1.2,0c-0.4,0-0.8,0-1.3,0
				c-0.1,0-0.1-0.2,0-0.3l0.3,0c0.6-0.1,0.6-0.2,0.6-1.3L147.8,5z M148.7,6.5c0,0.2,0,0.3,0,0.3c0,0,0.2,0.1,0.7,0.1
				c0.4,0,0.8,0,1.1-0.3c0.3-0.2,0.5-0.6,0.5-1.3c0-0.8-0.5-1.6-1.6-1.6c-0.6,0-0.7,0-0.7,0.3L148.7,6.5z"/>
			<path d="M157,11.5c-0.8-0.3-1.3-0.7-1.4-0.9c-0.1-0.3,0-1,0.2-1.5c0.1-0.1,0.2,0,0.2,0c0,0.5,0.1,1.6,1.2,2
				c0.8,0.3,1.4-0.2,1.6-0.7c0.1-0.4,0.2-0.9-0.4-1.6L157.7,8c-0.4-0.5-0.8-1.2-0.5-2c0.3-0.9,1.3-1.5,2.6-1.1
				c0.3,0.1,0.6,0.3,0.9,0.4c0.1,0.1,0.2,0.1,0.3,0.2c0,0.3-0.1,0.8-0.2,1.3c-0.1,0-0.2,0-0.3,0c0-0.5,0-1.2-1-1.5
				c-1-0.3-1.4,0.3-1.5,0.7c-0.2,0.6,0.2,1.1,0.5,1.5l0.6,0.7c0.5,0.6,0.9,1.3,0.6,2.3C159.4,11.5,158.3,11.9,157,11.5z"/>
			<path d="M165.2,9.3c0.6-0.9,0.6-1.1,0.2-1.5l-0.2-0.2c0-0.1,0.1-0.2,0.2-0.2c0.4,0.3,0.7,0.5,1.1,0.7c0.4,0.2,0.7,0.4,1.1,0.6
				c0,0.1,0,0.2-0.1,0.2l-0.2-0.1c-0.5-0.3-0.7-0.1-1.2,0.8l-1.9,3.1c-0.6,0.9-0.6,1.1-0.1,1.5l0.2,0.2c0,0.1-0.1,0.2-0.2,0.2
				c-0.4-0.3-0.7-0.5-1.1-0.7c-0.4-0.2-0.7-0.4-1.1-0.7c0-0.1,0-0.2,0.1-0.2l0.2,0.1c0.6,0.3,0.7,0.1,1.2-0.8L165.2,9.3z"/>
			<path d="M169.7,17.7c-0.8,0.7-0.9,0.9-0.5,1.3l0.2,0.3c0,0.1-0.1,0.2-0.2,0.2c-0.4-0.4-0.6-0.7-0.9-1c-0.3-0.3-0.5-0.6-1-1
				c0-0.1,0.1-0.2,0.2-0.2l0.3,0.3c0.4,0.4,0.6,0.3,1.4-0.4l3.4-3.1c0.2-0.2,0.2-0.2,0-0.5l-0.4-0.4c-0.3-0.3-0.7-0.7-1.1-0.8
				c-0.3,0-0.6,0.1-0.8,0.1c-0.1,0-0.2-0.2-0.1-0.2c0.5-0.2,1-0.5,1.4-0.8c0,0,0.1,0.1,0.1,0.1c-0.2,0.3,0,0.5,0.4,0.9l2.8,3.1
				c0.4,0.4,0.5,0.5,0.8,0.4c0,0,0.1,0.1,0.1,0.2c-0.4,0.2-1.1,0.7-1.3,1c-0.1,0-0.2-0.1-0.2-0.2c0.2-0.2,0.4-0.5,0.4-0.7
				c0-0.3-0.2-0.6-0.6-1.1l-0.5-0.5c-0.2-0.2-0.2-0.2-0.5,0L169.7,17.7z"/>
			<path d="M175.1,24.6c0.2-0.2,0.2-0.2,0.1-0.5l-0.7-1.4c-0.1-0.2-0.2-0.3-0.4-0.2l-1.1,0.1c-0.5,0.1-0.8,0.1-0.9,0.2
				c-0.1,0.1-0.1,0.1-0.1,0.4l0.1,0.3c0,0.1-0.2,0.2-0.2,0.1c-0.1-0.3-0.2-0.5-0.4-1c-0.1-0.3-0.3-0.6-0.5-0.9
				c0-0.1,0.2-0.2,0.2-0.1l0.2,0.3c0.1,0.2,0.3,0.4,0.7,0.3c0.5,0,1.2-0.1,2.5-0.2l3-0.2c0.4,0,0.6-0.1,0.7-0.2
				c0.2,0.2,0.4,0.3,0.6,0.3c0,0.1,0,0.1,0,0.2c-0.4,0.3-0.7,0.7-1.1,1l-3.2,3.1c-0.7,0.7-0.8,0.8-0.6,1.3l0.1,0.3
				c0,0.1-0.2,0.1-0.2,0.1c-0.2-0.4-0.3-0.7-0.5-1.1c-0.2-0.4-0.4-0.8-0.5-1.1c0-0.1,0.1-0.2,0.2-0.1l0.2,0.3
				c0.1,0.2,0.2,0.3,0.3,0.2c0.1,0,0.2-0.2,0.4-0.4L175.1,24.6z M175.1,22.4c-0.3,0-0.3,0-0.1,0.3l0.5,1.2c0.1,0.3,0.2,0.3,0.4,0.1
				l1.3-1.2c0.2-0.2,0.4-0.4,0.5-0.5l0,0c-0.1,0-0.3,0-0.7,0L175.1,22.4z"/>
			<path d="M174.5,31.7c-0.1-0.9,0.1-1.4,0.1-1.7c0.2-0.2,0.9-0.4,1.4-0.5c0.1,0,0.1,0.2,0.1,0.2c-0.5,0.2-1.4,0.8-1.3,2
				c0.1,0.9,0.8,1.2,1.4,1.1c0.5-0.1,0.9-0.2,1.3-1.1l0.5-1.1c0.3-0.6,0.8-1.2,1.6-1.4c1-0.1,1.9,0.5,2.1,1.8c0,0.3,0,0.7,0,1
				c0,0.1,0,0.3,0,0.4c-0.2,0.1-0.8,0.3-1.2,0.4c-0.1,0-0.1-0.2-0.1-0.3c0.5-0.2,1.1-0.6,1-1.6c-0.2-1-0.8-1.1-1.3-1.1
				c-0.6,0.1-1,0.6-1.1,1.1l-0.4,0.9c-0.3,0.7-0.8,1.4-1.8,1.6C175.6,33.7,174.7,33,174.5,31.7z"/>
			<path d="M124,43.2c0.7-0.3,0.9-0.4,0.8-0.8l-0.1-0.3c0-0.1,0.2-0.1,0.2-0.1c0.2,0.5,0.5,1.2,0.8,2.1c0.2,0.6,0.4,1.2,0.3,1.7
				c0,0.5-0.3,1-0.9,1.2c-0.7,0.3-1.2,0-1.7-0.5c-0.1,0-0.1,0.1-0.1,0.2c0.1,0.6-0.1,1.5-1.1,1.9c-1.1,0.4-2.2-0.1-2.8-1.9
				c-0.1-0.3-0.3-0.8-0.4-1.2c-0.2-0.4-0.3-0.8-0.4-1.1c0-0.1,0.2-0.1,0.2-0.1l0.1,0.2c0.3,0.5,0.4,0.5,1.4,0.1L124,43.2z
				 M120.7,45.3c-0.4,0.1-0.8,0.3-1,0.6c-0.2,0.3-0.1,0.6,0,0.9c0.3,0.9,1,1.4,1.9,1c0.8-0.3,1.5-1,0.9-2.6
				c-0.2-0.5-0.3-0.5-0.5-0.5L120.7,45.3z M123,44.4c-0.3,0.1-0.3,0.1-0.1,0.6c0.4,1,0.9,1.4,1.8,1.1c1-0.4,1-1.2,0.8-1.9
				c-0.1-0.2-0.2-0.4-0.2-0.4c-0.1-0.1-0.1-0.1-0.3,0L123,44.4z"/>
			<path d="M127.1,50.4c0.9-0.6,1-0.8,0.7-1.3l-0.1-0.1c0-0.1,0.2-0.2,0.2-0.1c0.3,0.4,0.5,0.7,0.7,1l1.2,1.6c0.4,0.5,0.8,1,0.9,1.1
				c-0.1,0.2-0.7,0.7-1,1c-0.1,0-0.2-0.1-0.2-0.2c0.3-0.4,0.5-0.7,0.3-1.2c-0.1-0.2-0.3-0.5-0.6-0.8l-0.4-0.6
				c-0.2-0.2-0.2-0.2-0.5,0l-1.7,1.2c-0.2,0.2-0.2,0.2,0,0.4l0.4,0.5c0.3,0.3,0.5,0.6,0.6,0.7c0.1,0.1,0.2,0.1,0.4,0l0.4-0.2
				c0.1,0,0.2,0.1,0.2,0.2c-0.2,0.1-0.5,0.4-0.9,0.6c-0.3,0.2-0.6,0.5-0.8,0.6c-0.1,0-0.2-0.1-0.2-0.2l0.3-0.3
				c0.1-0.1,0.2-0.3,0.1-0.5c-0.1-0.1-0.2-0.3-0.4-0.7l-0.4-0.5c-0.2-0.2-0.2-0.3-0.4-0.1l-1.2,0.9c-0.4,0.3-0.7,0.6-0.7,0.8
				c0,0.2,0,0.4,0.6,1.1c0.5,0.6,0.7,0.9,0.9,1c0.2,0.1,0.7,0.1,1.2,0c0.1,0,0.1,0.2,0.1,0.2c-0.3,0.2-1.1,0.4-1.4,0.5
				c-0.5-0.8-1.1-1.5-1.6-2.2l-0.6-0.7c-0.3-0.4-0.5-0.6-0.9-1.1c0-0.1,0.1-0.2,0.2-0.2l0.2,0.3c0.4,0.4,0.6,0.4,1.4-0.3L127.1,50.4
				z"/>
			<path d="M132.1,56.1c0.6-0.8,0.7-1,0.3-1.2l-0.2-0.2c0-0.1,0.1-0.2,0.2-0.2c0.5,0.3,1.1,0.7,1.9,1.3c0.5,0.4,1,0.8,1.2,1.3
				c0.2,0.5,0.3,1.1-0.2,1.7c-0.6,0.8-1.5,0.8-2.1,0.6c-0.1,0-0.1,0.1-0.1,0.2c-0.1,1.6-0.2,2.6,0.1,3.5c0,0.2,0.2,0.5,0.4,0.7
				c0,0,0,0.1-0.1,0.1c-0.1,0-0.2-0.1-0.4-0.2c-0.7-0.5-1-1-1-2.3c0-0.5,0.1-1.3,0.1-1.9c0-0.3-0.1-0.5-0.4-0.7
				c-0.4-0.3-0.4-0.3-0.5-0.1l-0.8,1.1c-0.6,0.9-0.7,1-0.3,1.4l0.2,0.2c0,0.1-0.1,0.2-0.2,0.2c-0.4-0.3-0.6-0.5-1-0.8
				c-0.4-0.3-0.7-0.5-1.1-0.7c0-0.1,0-0.2,0.1-0.2l0.2,0.1c0.5,0.3,0.6,0.2,1.3-0.7L132.1,56.1z M132,57.8c-0.1,0.1-0.2,0.2-0.2,0.3
				c0,0,0.1,0.2,0.5,0.5c0.3,0.2,0.6,0.4,1,0.4c0.4,0,0.8-0.2,1.2-0.7c0.5-0.7,0.5-1.6-0.4-2.3c-0.5-0.4-0.6-0.4-0.7-0.1L132,57.8z"
				/>
			<path d="M142.6,66.1c-0.1,0.4-0.1,0.6,0,0.8c0,0,0,0.1,0,0.1c-0.1,0-0.3-0.1-0.5-0.1c-0.6,0-1.3-0.1-1.8-0.3
				c-1.2-0.4-2.1-1.1-2.6-2.1c-0.4-0.8-0.5-1.7-0.2-2.5c0.3-0.8,0.8-1.6,1.7-2c0.9-0.5,2-0.6,3.5-0.1c0.6,0.2,1,0.5,1.2,0.6
				c0.2,0.1,0.5,0.3,0.6,0.3c-0.1,0.3-0.2,0.9-0.3,1.5c-0.1,0.1-0.2,0-0.3-0.1c0.1-1.2-0.6-1.7-1.6-2.1c-1.9-0.6-3.2,0.5-3.7,1.9
				c-0.6,1.9-0.1,3.7,1.8,4.3c0.6,0.2,1,0.2,1.2,0.1c0.1-0.1,0.2-0.2,0.3-0.5l0.1-0.4c0.3-0.8,0.3-0.9-0.3-1.2l-0.4-0.2
				c-0.1-0.1,0-0.2,0.1-0.2c0.3,0.1,0.8,0.3,1.4,0.5c0.4,0.1,0.7,0.2,1.1,0.3c0.1,0.1,0,0.2-0.1,0.2l-0.2,0
				c-0.4-0.1-0.5,0.2-0.7,0.7L142.6,66.1z"/>
			<path d="M147.9,62.5c0-1.1,0-1.2-0.6-1.3l-0.2,0c-0.1,0,0-0.2,0-0.3c0.4,0,0.8,0,1.2,0l1.9,0c0.7,0,1.3,0,1.4,0
				c0.1,0.2,0.1,0.9,0.2,1.4c0,0.1-0.2,0.1-0.3,0c-0.2-0.5-0.2-0.8-0.8-1c-0.2-0.1-0.5-0.1-1-0.1l-0.7,0c-0.3,0-0.3,0-0.3,0.4l0,2.1
				c0,0.3,0,0.3,0.3,0.3h0.6c0.4,0,0.8,0,0.9-0.1c0.1,0,0.2-0.1,0.2-0.4l0.1-0.4c0.1-0.1,0.2-0.1,0.3,0c0,0.2,0,0.7,0,1
				c0,0.4,0,0.8,0,1c0,0.1-0.2,0.1-0.3,0l-0.1-0.4c0-0.2-0.1-0.3-0.3-0.4c-0.1,0-0.4-0.1-0.8-0.1l-0.6,0c-0.3,0-0.3,0-0.3,0.3l0,1.5
				c0,0.5,0,0.9,0.2,1.1c0.1,0.1,0.3,0.2,1.3,0.2c0.8,0,1.1,0,1.3-0.2c0.2-0.1,0.5-0.5,0.7-1c0.1,0,0.2,0,0.3,0.1
				c-0.1,0.4-0.3,1.2-0.5,1.4c-0.9,0-1.9,0-2.8,0l-0.9,0c-0.4,0-0.8,0-1.4,0c-0.1,0-0.1-0.2,0-0.3l0.3,0c0.6-0.1,0.6-0.2,0.6-1.3
				L147.9,62.5z"/>
			<path d="M162,60.8c-0.2-0.4-0.6-1.6-0.6-2.1c0-0.1,0.2-0.2,0.5-0.4l0.1-0.1c0-0.1,0-0.2-0.1-0.2c-0.3,0.1-0.6,0.2-1,0.4
				c-0.4,0.1-0.7,0.2-1.2,0.4c-0.1,0.1,0,0.2,0.1,0.3l0.2,0c0.4-0.1,0.6-0.1,0.7,0c0.3,0.2,0.8,1.5,0.9,1.9l0.8,2.1
				c0.1,0.2,0.1,0.4,0.1,0.4l0,0c-0.6-0.3-1.3-0.7-2.3-1.2l-1.3-0.7c-0.5-0.2-2.1-1.1-2.5-1.5c-0.1,0.1-0.3,0.1-0.4,0.2
				c-0.2,0.1-0.7,0.3-1.1,0.4c-0.1,0.1,0,0.2,0.1,0.3l0.2,0c0.2-0.1,0.5-0.1,0.7,0c0.3,0.1,0.4,0.3,0.5,0.6l1,2.8
				c0.2,0.5,0.6,1.6,0.6,2c0,0.1-0.1,0.2-0.4,0.4l-0.3,0.1c0,0.1,0,0.2,0.1,0.2c0.3-0.1,0.6-0.3,1-0.4c0.4-0.1,0.7-0.3,1.2-0.4
				c0-0.1,0-0.2-0.1-0.3l-0.3,0.1c-0.3,0.1-0.5,0.1-0.6,0c-0.3-0.2-0.8-1.5-0.9-1.9L157,62c-0.1-0.3-0.2-0.5-0.2-0.6l0,0
				c0.3,0.1,1.2,0.7,1.6,0.9l3.2,1.7c1.2,0.6,1.6,0.9,1.8,1c0.1,0,0.1-0.1,0.1-0.2c-0.1-0.2-0.6-1.4-0.7-1.7L162,60.8z"/>
			<path d="M170.2,60.6c-0.7,0.6-1.3,0.7-1.5,0.7c-0.2-0.1-0.8-0.6-1.1-0.9c0-0.1,0.1-0.2,0.2-0.2c0.5,0.3,1.4,0.8,2.4,0
				c0.7-0.6,0.6-1.3,0.2-1.7c-0.3-0.3-0.7-0.7-1.6-0.6l-1.2,0.1c-0.6,0.1-1.5,0-2-0.7c-0.6-0.8-0.6-1.9,0.5-2.7
				c0.2-0.2,0.6-0.4,0.8-0.5c0.1-0.1,0.3-0.1,0.3-0.2c0.2,0.1,0.7,0.5,1,0.8c0,0.1-0.1,0.2-0.2,0.2c-0.4-0.3-1.1-0.6-1.8,0
				c-0.8,0.6-0.5,1.3-0.2,1.7c0.4,0.5,1,0.5,1.5,0.4l1-0.1c0.8-0.1,1.6-0.1,2.3,0.7C171.4,58.6,171.2,59.7,170.2,60.6z"/>
			<path d="M171.3,51.5c-0.9-0.6-1.1-0.7-1.4-0.3l-0.2,0.2c-0.1,0-0.2-0.1-0.2-0.2c0.3-0.4,0.5-0.7,0.8-1c0.2-0.3,0.4-0.6,0.7-1.1
				c0.1,0,0.2,0.1,0.2,0.1l-0.1,0.2c-0.3,0.5-0.2,0.6,0.7,1.3l3,2.1c0.9,0.6,1,0.7,1.4,0.2l0.2-0.2c0.1,0,0.2,0.1,0.2,0.2
				c-0.3,0.4-0.5,0.7-0.8,1c-0.3,0.4-0.4,0.6-0.7,1.1c-0.1,0-0.2,0-0.2-0.1L175,55c0.3-0.5,0.2-0.6-0.7-1.3L171.3,51.5z"/>
			<path d="M179.8,47.2c-0.3,0.8-0.8,1.2-0.9,1.4c-0.3,0-1-0.1-1.5-0.2c0-0.1,0-0.2,0.1-0.2c0.5,0,1.6,0,2.1-1.1
				c0.3-0.8-0.1-1.4-0.7-1.6c-0.4-0.2-0.9-0.3-1.7,0.3l-0.9,0.7c-0.5,0.4-1.3,0.7-2.1,0.4c-0.9-0.3-1.4-1.3-0.9-2.6
				c0.1-0.3,0.3-0.6,0.5-0.9c0.1-0.1,0.2-0.2,0.2-0.3c0.3,0,0.8,0.1,1.2,0.3c0,0.1,0,0.2-0.1,0.3c-0.5,0-1.2,0-1.6,0.9
				c-0.4,0.9,0.2,1.4,0.6,1.6c0.6,0.2,1.1-0.1,1.5-0.4l0.8-0.6c0.6-0.5,1.4-0.9,2.3-0.5C179.9,44.8,180.3,45.9,179.8,47.2z"/>
			<path d="M149.6,0.6c-19.3,0-35,15.7-35,35c0,19.3,15.7,35,35,35s35-15.7,35-35C184.6,16.3,169,0.6,149.6,0.6z M149.6,69.6
				c-18.8,0-34-15.2-34-34c0-18.8,15.2-33.9,34-33.9c18.8,0,34,15.2,34,33.9C183.6,54.4,168.4,69.6,149.6,69.6z"/>
			<path d="M157.9,52.6c-0.7,0.5-1.2,1.3-1.5,2c0.6,0.5,2.1,1.1,4.7,1.6c1.1-0.6,2-1.2,3-1.9c-0.9-0.2-1.8-0.7-2.3-1
				C160.6,52.5,159.2,51.6,157.9,52.6z"/>
			<path d="M141.5,47.9c-0.9-0.2-1.3-0.2-2.6,0.2c-2.2,0.7-5.6,4.5-5.6,4.5c1,1,2.1,1.9,3.3,2.6c0.9-1.2,3.5-4.1,5.8-4.1
				c1.3,0,1.9,0.5,3,1.2c0.1-0.1,0.2-0.3,0.3-0.4C143.9,51,141.5,47.9,141.5,47.9z"/>
			<path d="M149,51.3c-1,0.1-1.8,1-2.3,1.9c2,1.3,3.7,2.9,6.3,3.7c2,0.6,2.8,0.8,4.8,0.9c0.9-0.3,1.8-0.7,2.6-1.2
				c-1.3-0.2-2.9-0.8-4.3-1.4C153.8,54,151.1,51,149,51.3z"/>
			<path d="M142.9,52.5c-2.9,0-4.1,2.5-5.1,3.6c3.5,2,7.5,3.2,11.7,3.2c2.3,0,4.4-0.3,6.5-0.9c-1.3-0.1-2.9-0.4-4.4-1
				C148.5,56,145.1,52.5,142.9,52.5z"/>
			<path d="M163.9,50.5c-2-2.5-3.5-3-4.2-2.8c-0.8,0.2-0.6,0.8-1.5,1.8c-0.8,1-2.7,2-3.1,2.3c0.3,0.3,0.7,0.8,0.8,0.9
				c0.9-0.9,2.1-1.7,3.3-1.7c2.1,0,2.7,1.7,5.5,2.6c0.6-0.5,1.2-1,1.7-1.5C166.4,52.2,165.1,51.9,163.9,50.5z"/>
			<path d="M159.3,30.2c-0.1-0.1,0-0.3-0.1-0.4c-0.1-0.4-0.3-0.8-0.3-1.3c-0.1-0.3,0.2-0.4,0.4-0.5c0.1-0.3,0.1-0.6,0-0.8
				c-0.1-0.4-0.7-0.5-0.7-0.9c0-0.3-0.2-0.6-0.2-1c-0.2-0.5-0.1-1-0.2-1.6c-0.1-0.6-0.1-1.2-0.2-1.8c-0.1-0.7-0.2-1.4-0.4-2.1
				c-0.1-0.6-0.3-1.2-0.6-1.7c0-0.4-0.4-0.7-0.2-1.1c0.3-0.5,0.6-1,0.8-1.5c0.2-0.3,0.1-0.7,0.2-1c0-0.3,0.1-0.6,0-0.9
				c-0.1,0-0.1,0-0.1,0c-0.1,0.5-0.7,0.7-1.1,1c-0.5,0.2-1.2,0.1-1.8,0.2c-0.4,0-0.7,0.4-1.1,0.1c-0.2-0.1-0.4-0.2-0.6-0.3
				c-0.5,0-1,0-1.4,0c-0.7,0-1.2-0.4-1.9-0.3c-0.8,0-1.6,0.4-2.5,0.3c-0.8-0.2-1.6,0.1-2.2,0.4c-0.2,0-0.5-0.2-0.7-0.2
				c-0.7-0.3-1.5,0.2-2.1-0.3c-0.3-0.3-0.5-0.6-0.4-1c-0.1,0.1-0.2,0.2-0.2,0.3c-0.2,0.3-0.3,0.6-0.3,0.9c-0.1,0.4,0,0.9,0.1,1.3
				c0.1,0.7,0.6,1.3,0.4,2c-0.1,0.3-0.3,0.7-0.4,1c-0.3,0.3-0.2,0.8-0.3,1.2c-0.3,0.8-0.1,1.6,0,2.4c-0.3,0.9-0.4,1.9-0.5,3
				c-0.1,0.7,0,1.4-0.3,2c-0.4,0.4-0.7,0.7-0.5,1.2c0,0.3,0.2,0.5,0.3,0.7c0.1,0.5,0.1,1,0,1.6c0,0.4-0.4,0.6-0.5,0.9
				c-0.1,0.4,0.2,0.6,0.4,0.8c0.1,0.2,0.1,0.6,0.1,0.8c0.1,0.7,0.2,1.3,0.3,2c0.2,1,0.3,2,0.5,2.9c0.2,1.1,0.5,2.2,0.8,3.3
				c0.3,0.8,0.5,1.6,0.8,2.4c0.2,0.7,0.6,1.2,0.6,2c0,0.1,0,0.2,0.1,0.2c0,0.5-0.4,0.8-0.3,1.3c0,0,1.4,2.5,3.2,3.6
				c0.7-0.8,1.7-1.5,2.9-1.5c2.1,0,4,2.1,6,3.6c0.1-0.2,0.3-0.3,0.5-0.5c-0.7-0.9-3.5-4.2-5.9-4.6c0,0,0.2-0.5,0-0.7
				c-0.2-0.3-0.2-0.5-0.2-0.8c0-0.1-0.1-0.3,0-0.5c0.4,0.1,0.5,0.5,0.7,0.7c0,0,0.1,0,0.1,0c0,0,0.1,0,0.1-0.1
				c0-0.4,0.4-0.6,0.7-0.8c0.1,0,0.1,0,0.2,0.1c0.1,0.4,0,0.9,0.3,1.2c0.1,0.1,0,0.2-0.1,0.3c0,0.3-0.2,0.2-0.2,0.2
				c1.8,0.8,2.8,1.9,3.8,3.1c0.7-0.5,3.1-2,3.1-3.7c0-0.5-0.3-0.5-0.4-0.8c-0.2-0.2-0.4-0.4-0.5-0.7c-0.3-0.5-0.5-1.1-0.4-1.8
				c0.2-0.5,0.2-1,0.4-1.5c0.3-0.9,0.5-1.8,0.7-2.7c0.3-1.2,0.7-2.4,0.8-3.7c0.2-0.4,0.2-0.9,0.3-1.4c0.2-0.4,0.1-1,0.2-1.4
				c0.1-0.4,0-0.8,0.2-1.1c0.1-0.2,0-0.4,0.1-0.6c0-0.3,0.3-0.2,0.3-0.5c0.2-0.1,0.3-0.4,0.4-0.5C160,30.8,159.6,30.5,159.3,30.2z
				 M158.2,26.7c0.2,0.1,0.4,0.1,0.5,0.3c0.2,0.1,0.2,0.3,0.3,0.5c0,0.1,0,0.3-0.1,0.3c-0.4,0-0.7-0.2-0.9-0.4
				C157.9,27.1,158.1,26.9,158.2,26.7z M156.1,31.5c0,0.6,0,1.2-0.1,1.8c-0.1,0.1,0,0.2,0,0.3c-0.1,0.6,0,1.2-0.1,1.8l-0.1,0
				c-0.2-0.2-0.7-0.3-0.7-0.7c0.3-1,0.2-2.2,0.3-3.3c0.1-0.9,0.1-1.8,0-2.7c0,0,0-0.1,0.1-0.1c0.3,0.1,0.4,0.4,0.7,0.5
				C156.2,30,156.1,30.7,156.1,31.5z M142.6,23.7c-0.3,0-0.3-0.3-0.4-0.5c-0.1-0.1-0.1-0.3-0.1-0.4c0.1-0.1,0.1-0.2,0.1-0.3
				c-0.1-0.1-0.3,0-0.3-0.2c0-0.2-0.1-0.5,0.2-0.6c0.2-0.1,0.5,0,0.7-0.2c0,0,0-0.1-0.1-0.1c-0.3,0-0.5,0.1-0.7,0.2
				c-0.1,0-0.1-0.1-0.1-0.2c0-0.7-0.1-1.3,0.1-1.8c0-0.1-0.1-0.3,0-0.4c0.3-0.1,0.4,0.3,0.7,0.2l0,0c-0.2-0.2-0.3-0.4-0.6-0.4
				c-0.1-0.2,0-0.5,0-0.7c0.1-0.1,0.1-0.2,0.2-0.1c0.2,0.1,0.3,0.3,0.5,0.4c0.1,0,0.1-0.1,0.1-0.2c-0.2-0.3-0.7-0.3-0.5-0.8
				c0-0.2,0.1-0.4,0.3-0.4c0.2,0.1,0.3,0.3,0.5,0.4l0.1,0c-0.2-0.2-0.3-0.4-0.2-0.6c0.1-0.1,0.3,0.1,0.4,0.1l0.2,0.1
				c0.2,0.1,0.5,0.2,0.5,0.5c0.2,0.2,0.2,0.5,0.5,0.8c0.1,0.2,0.2,0.3,0.3,0.4c-0.1,0.1-0.2,0.1-0.2,0c-0.2-0.1-0.3-0.4-0.5-0.6
				c-0.1,0-0.1,0-0.1,0.1c0.1,0.2,0.1,0.5,0.3,0.6l0,0.2c-0.3,0-0.6-0.3-0.9-0.5c0,0-0.1-0.1-0.2,0c-0.1,0.1,0,0.2,0,0.2
				c0.2,0.3,0.3,0.6,0.6,0.7c0.1,0.1,0.1,0.2,0,0.2c0,0.2-0.2,0.1-0.3,0.1c-0.2-0.2-0.4-0.4-0.6-0.5l-0.1,0c0,0.2,0.1,0.2,0.2,0.4
				c0.2,0.3,0.6,0.3,0.5,0.6c0,0.1,0,0.2-0.1,0.2c-0.5-0.1-1.2-0.2-1.6,0.2c0,0.1,0,0.1,0.1,0.1c0.5,0,0.9,0,1.2,0.3
				c0.1,0.1,0.2,0.2,0.1,0.3c-0.1,0-0.2,0-0.3,0.1c-0.1,0.1-0.3,0.2-0.5,0.3c0,0,0,0.1,0,0.1c0.2-0.1,0.4-0.2,0.7-0.3
				c0.1,0,0.2,0,0.2,0.1c0,0.1-0.1,0.1-0.2,0.2c-0.2,0.2-0.5,0.3-0.5,0.6l0.1,0c0.3,0,0.5-0.5,0.8-0.4c0.1,0.1,0.1,0.1,0.1,0.2
				c-0.4,0.3-1,0.5-1,1.1c0,0,0,0.1,0,0.1c0.1,0,0.1-0.1,0.2-0.2c0.3-0.3,0.7-0.6,1.1-0.7c0,0,0.1,0,0.1,0.1c0,0.2-0.3,0.4-0.3,0.6
				c-0.1,0.2-0.1,0.4-0.2,0.6c0,0,0.1,0.1,0.1,0c0.2-0.3,0.4-0.8,0.8-1c0,0.1,0.1,0,0.2,0.1c0.2,0,0.5,0.1,0.6,0.3
				c0,0.5-0.2,1,0,1.5c0.1-0.1,0-0.2,0-0.3c0-0.4,0.2-0.6,0.3-1c0-0.1,0.2-0.1,0.2-0.1c0.2,0.1,0.2,0.3,0.4,0.4c0.1-0.1,0-0.4,0-0.5
				c0.1-0.1,0.2-0.1,0.3-0.1c0,0,0.1,0,0.2,0c0.1-0.1,0-0.2,0-0.2c0.2-0.2,0.3-0.6,0.6-0.5l0.1,0.1c0,0.2,0,0.5-0.1,0.7
				c-0.1,0-0.1-0.2-0.3-0.1c-0.1,0.1,0,0.2,0,0.3c0.1,0.2,0.2,0.4,0.3,0.6c0,0.1,0.1,0.1,0,0.2c-0.3,0-0.4-0.3-0.5-0.4
				c-0.1-0.1-0.2,0-0.2,0.1c0,0.3,0.2,0.6,0.4,0.8c0.1,0,0.2,0.1,0.2,0.1c0,0.1-0.1,0.2,0,0.3l0.1,0.2c-0.1,0.1-0.3,0-0.5-0.1
				c-0.3-0.2-0.6-0.6-0.7-1c0,0-0.1-0.1-0.1,0c-0.1,0.3,0,0.5,0.1,0.7c0.2,0.1,0.3,0.3,0.3,0.5c-0.1,0.1-0.2,0.1-0.3,0.1
				c-0.3-0.2-0.3-0.6-0.3-0.9c0,0-0.1-0.1-0.1,0c-0.1,0.2-0.1,0.4-0.1,0.5c0,0.1,0.1,0.4-0.1,0.5c-0.2,0.1-0.4,0-0.6,0.1
				c-0.2-0.1-0.2-0.4-0.2-0.6c0-0.1-0.1,0-0.1,0c-0.2,0.1-0.2,0.6-0.5,0.4c-0.2-0.1-0.5-0.2-0.7-0.5c-0.1-0.3,0.2-0.4,0.2-0.7
				c0.1-0.2,0.3-0.3,0.4-0.6c-0.1-0.1-0.3,0.1-0.4,0.2c-0.2,0.3-0.4,0.6-0.5,0.9c0,0.1-0.1,0.1-0.2,0.1c-0.3-0.3-1-0.5-0.9-1
				c0.1-0.1,0.1-0.2,0.2-0.3C142.8,23.5,142.7,23.7,142.6,23.7z M149.5,24.8c0,0,0.1,0,0.1,0c0.1-0.2,0.1-0.6,0.1-0.8
				c0-0.7,0.1-1.4,0.2-2c0-0.1,0-0.2,0.2-0.3c0.2,0,0.4,0.1,0.5,0.3c0.1,0.9,0,1.8-0.2,2.7c-0.1,0.4-0.4,0.7-0.6,1.1
				c-0.1,0.1-0.1,0.4-0.4,0.4c-0.6-0.8-1-1.8-1-2.9c0-0.4-0.2-0.9,0.1-1.2c0.3-0.1,0.5-0.4,0.8-0.3l0,0.1
				C149.5,22.8,149.2,23.8,149.5,24.8z M152.1,27.7c-0.5-0.2-0.9-0.7-1-1.3c0-0.1,0.1-0.1,0.1,0l0.5,0.5c0.4,0.2,0.8,0.5,1,0.9
				c0,0.1,0.1,0.3-0.1,0.4c-0.2,0.2-0.4,0.3-0.7,0.3c-0.5-0.1-0.9-0.4-1.2-0.9c-0.1-0.3-0.1-0.7,0-1c0.2,0,0.1,0.2,0.2,0.3
				c0.2,0.4,0.6,0.9,1.1,1.1C152.2,27.8,152.1,27.7,152.1,27.7z M151.9,23c-0.1,0.1-0.2,0.2-0.3,0.3c-0.1-0.2,0.1-0.3,0.1-0.5
				c0,0,0-0.1,0-0.1c-0.1-0.1-0.2,0-0.2-0.2c0-0.1,0-0.1,0-0.2l0.2,0c0.2,0.2,0.5,0.5,0.8,0.7c0,0.2,0,0.4-0.1,0.6
				c0,0.2-0.2,0.4-0.2,0.6c0,0.1,0.1,0.1,0.1,0c0.2-0.3,0.3-0.6,0.6-0.9c0.3-0.1,0.6,0,0.9,0c0.2,0.1,0.1,0.4,0.2,0.6
				c0,0.1,0,0.3,0.1,0.4c0.2,0,0.1-0.3,0.2-0.4c0.1-0.3,0-0.5,0-0.7c0-0.1,0-0.1,0-0.2c0.1-0.1,0.2-0.1,0.3,0
				c0.2,0.1,0.3,0.3,0.5,0.5c0.1,0,0-0.1,0-0.2c0-0.2-0.3-0.4-0.3-0.6c0-0.1,0.1-0.1,0.2-0.1c0.2,0.1,0.1,0.4,0.3,0.5
				c0.1,0,0-0.1,0-0.2c-0.1-0.2-0.2-0.4-0.2-0.6c0.1-0.1,0.1,0,0.2,0c0.3,0.1,0.5,0.2,0.8,0.4c0.3,0.2,0.3,0.6,0.4,0.9
				c-0.1,0.3,0.2,0.7-0.1,0.9c-0.2,0.1-0.4,0.3-0.6,0.4c-0.1-0.1-0.1-0.2-0.2-0.3c-0.2-0.2-0.3-0.7-0.6-0.6
				c-0.1,0.1,0.1,0.3,0.1,0.5c0,0.3,0.3,0.6,0.1,0.9c-0.3-0.1-0.4,0.3-0.7,0.2c-0.3-0.1-0.6,0.5-0.9,0c0-0.4,0-0.8-0.1-1.2
				c-0.1-0.1-0.1-0.3-0.2-0.3c-0.1,0.1,0,0.3-0.1,0.5c0,0.4-0.1,0.7-0.3,1.1c-0.1,0.1-0.2,0.2-0.3,0.1c0,0-0.1,0-0.1-0.1
				c0-0.2,0.1-0.4,0.1-0.6c0-0.1-0.1,0-0.1,0c-0.2,0.3-0.5,0.7-0.9,0.6c-0.1-0.1-0.1-0.1-0.2-0.1c0.1-0.2,0.4-0.4,0.4-0.6
				c-0.2,0-0.3,0.2-0.5,0.3C151.2,24.1,151.9,23.7,151.9,23C152,23,151.9,23,151.9,23z M151.9,19.8c0.3-0.4,0.8-0.5,1.2-0.6
				c0.5,0,1.1,0.1,1.4,0.5c0.4,0.5,0.5,1.2,0.3,1.8c-0.3,0.6-0.9,1.1-1.6,1.1c-0.3,0.1-0.5-0.1-0.8-0.2c-0.4-0.2-0.5-0.6-0.7-0.9
				C151.5,20.9,151.6,20.3,151.9,19.8z M157,27.7c0,0,0.1-0.1,0.2-0.1c0.2,0,0.3,0,0.5,0.1c0.1,0.2,0.2,0.5,0.1,0.7
				c-0.3,0.1-0.5,0-0.7-0.2C156.9,28,157.1,27.8,157,27.7z M157.3,27.3c-0.3-0.1-0.6-0.4-0.8-0.6c-0.1-0.3-0.3-0.5-0.3-0.8
				c0-0.2-0.1-0.4,0-0.6h0c0.2,0.4,0.6,0.8,1,1.2c0.1,0.1,0.3,0.1,0.4,0.3C157.5,27,157.4,27.2,157.3,27.3z M154.9,33.4
				c-0.3,0.1-0.5-0.3-0.8-0.4c-0.3-0.4-0.6-0.8-0.6-1.3c0,0,0.1-0.1,0.1-0.1c0.2,0.3,0.4,0.7,0.8,0.8c0.1,0,0.1,0,0.1-0.1
				c-0.1-0.3-0.3-0.6-0.2-0.9c0.2,0,0.3,0.3,0.5,0.3c0.1,0.1,0.1,0.3,0.1,0.5C154.9,32.7,155,33.1,154.9,33.4z M154.8,39.9
				c0-0.8,0.2-1.6,0.2-2.5c0.1-0.1,0.3-0.2,0.5-0.2c0,0.1,0,0.3,0,0.5c0,0.8-0.1,1.6-0.1,2.4c0,0.3-0.1,0.6-0.1,1
				c-0.1,0.2-0.1,0.4-0.1,0.6c0,0.7-0.2,1.3-0.3,1.9c-0.1,0.1-0.1,0.4-0.3,0.4c-0.2-0.2-0.1-0.5-0.1-0.7c0.1-0.2,0-0.4,0.1-0.7
				C154.6,41.7,154.9,40.9,154.8,39.9z M154.6,45.6c0.2,0.4,0.2,0.7,0.3,1.1c0,0.2,0.1,0.4-0.1,0.5c-0.5-0.1-0.9,0.1-1.3,0.4
				c-0.1,0-0.2,0-0.3-0.1c-0.1-0.2,0-0.4,0-0.6c0.1-0.2,0-0.5,0.2-0.7c0.1-0.1,0.3-0.1,0.3-0.3c-0.2-0.1-0.5,0-0.6-0.2
				c-0.2-0.3-0.4-0.6-0.4-1c0.3-0.3,0.8-0.4,1.2-0.3c0.1,0.1,0.3,0.1,0.3,0.2C154.4,45.1,154.5,45.4,154.6,45.6z M153.8,47.9
				c0.1-0.3,0.4-0.3,0.6-0.4c0.1,0,0.2,0,0.2,0.1c-0.1,0.6-0.2,1.2-0.6,1.7c0,0.1-0.1,0.1-0.2,0.1c-0.1,0,0-0.1,0-0.2
				C154.1,48.9,154,48.3,153.8,47.9z M152.9,49c-0.4-0.1-0.8-0.4-0.9-0.9c0-0.1-0.1-0.2-0.1-0.3c0.2-0.2,0.5-0.2,0.8-0.2l0.1,0.1
				C152.7,48.1,152.6,48.6,152.9,49z M152.2,47.3c-0.2,0-0.4,0.2-0.6,0.2c-0.1-0.2-0.1-0.4-0.2-0.6c-0.1-0.7,0-1.4,0.6-1.8
				c0.1-0.1,0.2,0,0.3,0c0.2,0.2,0.3,0.5,0.4,0.7c0.1,0.2,0.2,0.3,0.3,0.6c0.1,0.3,0,0.6,0,0.9C152.8,47.4,152.5,47.2,152.2,47.3z
				 M147.8,48.3c0.2-0.1,0.4-0.3,0.7-0.1c0.2,0.2,0.2,0.4,0.2,0.6c-0.2,0.4-0.6,0.8-1,0.9c0,0-0.1,0-0.1-0.1c0-0.3,0.2-0.5,0.1-0.8
				C147.5,48.6,147.7,48.4,147.8,48.3z M148.5,47.9c-0.2,0-0.4-0.1-0.5-0.2c-0.2,0-0.2,0.2-0.4,0.3c-0.1,0-0.1,0.1-0.2,0.1
				c-0.1-0.2-0.1-0.4-0.1-0.6c-0.1-0.2,0-0.5,0.1-0.7c0.2-0.1,0.3-0.3,0.5-0.3c0.1-0.1,0.1-0.1,0.1-0.2c-0.1-0.1-0.3-0.1-0.4-0.1
				c-0.2,0.1-0.3,0.2-0.5,0.4c-0.2-0.3-0.2-0.6-0.2-0.9c0-0.3,0.1-0.7,0.4-0.8c0.2,0.1,0.6,0.1,0.7,0.4c0.4,0.5,0.8,1,0.9,1.7
				c0,0.4,0.1,0.8-0.1,1.2C148.7,48,148.6,47.9,148.5,47.9z M147.4,44.1c-0.6-0.3-0.7-1-0.6-1.6c0-0.1,0-0.3,0.1-0.3
				c0.1,0.1,0.1,0.2,0.2,0.3c0.3,0.6,1,0.9,1.4,1.5c0.4,0.2,0.6,0.7,0.6,1.2c0.1,0.1,0,0.3,0,0.4c0,0-0.1,0-0.1-0.1
				C148.7,44.9,148.1,44.3,147.4,44.1z M144.5,26.9c0.2-0.1,0.3-0.3,0.5-0.4c0.2-0.2,0.3-0.4,0.5-0.6c0.1,0,0.2,0,0.2,0.1
				c0,0.3-0.1,0.5-0.2,0.7c-0.3,0.6-0.6,1.2-1.3,1.3c-0.2,0-0.4-0.1-0.5-0.2c0-0.3-0.1-0.5-0.1-0.7c0-0.5,0.4-0.9,0.7-1.4
				c0.1-0.1,0.3-0.2,0.3,0c-0.1,0.3-0.1,0.7-0.1,1C144.5,26.8,144.5,26.9,144.5,26.9z M146,30.6c0.4-0.3,0.7-0.7,1-1.1
				c0,0,0.1,0,0.1,0c0,0.7-0.4,1.3-0.9,1.9c-0.3,0.3-0.7,0.5-1.2,0.4c-0.3,0-0.3-0.4-0.5-0.6c0-0.3,0.1-0.5,0.2-0.7
				c0.4-0.3,0.9-0.6,1.1-1c0-0.1,0.1-0.1,0.2,0c0,0.5-0.3,0.9-0.5,1.3C145.8,30.8,145.9,30.6,146,30.6z M147.1,27.9
				c0.4-0.1,0.6-0.4,0.8-0.7c0-0.2,0.2-0.3,0.3-0.5c0,0,0,0,0.1,0c0,0.7-0.3,1.4-0.9,1.9c-0.1,0.1-0.3,0.1-0.4,0.1
				c-0.2-0.1-0.5-0.2-0.5-0.4c0-0.4,0.1-0.9,0.5-1.1c0.1-0.1,0.2-0.3,0.3-0.3c0,0.3-0.1,0.5-0.2,0.8C147.2,27.7,147,27.8,147.1,27.9
				z M149,34.7C149,34.7,149,34.8,149,34.7c0.2-0.1,0.1-0.3,0.2-0.4c0-0.1,0.1,0,0.2,0c0.3,0.2,0.1,0.6,0.2,0.9
				c0,0.3-0.1,0.6-0.2,0.9c0.1,0.1,0.2,0,0.2,0c0.2-0.4,0.2-0.8,0.3-1.3c0-0.1,0-0.2,0.1-0.3c0.1,0,0.1,0,0.1,0.1c0,0.3,0,0.6,0,0.9
				l0.1,0c0.3-0.4,0.1-0.9,0.3-1.3c0.1-0.2,0-0.5,0.1-0.7c0.2,0,0.2,0.2,0.2,0.4c0,0.2,0.1,0.3,0.2,0.4c0.1,1,0.4,2.3-0.6,3
				c-0.3,0.2-0.8,0.1-1.1,0c-0.3-0.1-0.4-0.4-0.5-0.7c-0.2-0.6-0.4-1.2-0.3-1.8c0.1-0.6,0.2-1.3,0.5-1.8c0.1,0,0,0.2,0,0.3
				C148.9,33.7,148.8,34.2,149,34.7z M151.8,32.7c-0.1-0.2-0.1-0.5-0.2-0.8c0-0.2,0.2,0,0.2,0.1c0.2,0.6,1.1,0.7,1.1,1.4
				c0.1,0.2,0.1,0.4,0,0.6c-0.2,0.2-0.5,0.3-0.9,0.3c-0.5-0.2-0.8-0.7-1.1-1c0-0.3-0.3-0.5-0.1-0.8c0.1,0,0.2,0.1,0.2,0.1
				c0.2,0.3,0.6,0.6,0.9,0.8c0.1,0,0.1,0,0.2-0.1C152.2,32.9,151.9,32.8,151.8,32.7z M151.3,38.4c-0.1-0.2-0.4-0.4-0.4-0.6
				c0-0.1-0.1-0.2,0.1-0.3c0.4,0.2,0.9,0.5,1.2,0.9c0.1,0.2,0.1,0.7-0.1,0.9c0,0.1-0.1,0.3-0.2,0.3c-0.1,0.1-0.3,0.1-0.5,0.1
				c-0.5-0.3-0.8-0.9-0.9-1.4h0.1c0.2,0.2,0.3,0.6,0.7,0.5C151.4,38.7,151.4,38.5,151.3,38.4z M152.2,37.3c-0.3-0.4-0.6-0.8-0.6-1.4
				c0,0,0.1-0.1,0.1,0c0.1,0.1,0.1,0.2,0.1,0.3c0.1,0.2,0.2,0.5,0.5,0.5c0.1,0,0-0.2,0-0.2c0-0.3-0.2-0.5-0.1-0.8h0
				c0.4,0.4,0.8,0.8,0.7,1.4c0,0.2-0.2,0.3-0.3,0.3C152.5,37.4,152.4,37.4,152.2,37.3z M147.1,36.7c0.3-0.3,0.5-0.6,0.7-0.9
				c0.1,0,0.1,0,0.1,0.1c0.1,0.7-0.3,1.4-0.9,1.8c-0.2,0.1-0.4,0.1-0.5,0.1c-0.1-0.1-0.2-0.3-0.3-0.4c-0.1-0.6,0.1-1.1,0.5-1.5
				c0.2-0.2,0.2-0.4,0.4-0.5c0.2,0.1,0.1,0.5,0.1,0.7c0,0.3-0.2,0.4-0.2,0.7C147,36.9,147.1,36.7,147.1,36.7z M147.7,37.9
				c0.1-0.3,0.4-0.4,0.6-0.7c0.1,0,0.2,0,0.2,0.1c0,0.5-0.3,0.9-0.5,1.2c0.1,0.1,0.2-0.1,0.4-0.1c0.3-0.2,0.3-0.6,0.5-0.9
				c0.1,0,0.2,0.1,0.2,0.1c0.3,0.7-0.1,1.2-0.4,1.7c-0.2,0.4-0.6,0.2-0.9,0.3c-0.2,0-0.4-0.1-0.4-0.3
				C147.2,38.9,147.6,38.4,147.7,37.9z M148.5,32.2c0,0.3-0.1,0.5-0.2,0.8l-0.1,0.1c0.1,0.1,0,0.2,0,0.3c-0.1,0.6-0.6,1-1.1,1.1
				c-0.2,0-0.4-0.1-0.5-0.2c-0.3-0.2-0.2-0.6-0.2-0.9c0.2-0.6,0.6-1.2,0.9-1.8c0,0,0.1-0.1,0.1,0c0.1,0.6,0,1.1-0.2,1.6
				c0,0.1,0,0.2,0.1,0.3c0.2-0.1,0.2-0.3,0.4-0.4l0-0.1c0.2-0.4,0.5-0.8,0.6-1.2c0-0.1,0.1,0,0.1-0.1
				C148.6,31.8,148.5,32,148.5,32.2z M145.6,29.1c-0.2,0.2-0.5,0.4-0.8,0.4c-0.1,0-0.2-0.1-0.2-0.2c-0.1-0.6,0.4-0.9,0.5-1.4
				c0.1-0.1,0.2-0.3,0.3-0.3c0.1,0.3-0.1,0.6-0.1,0.9c0.1,0.1,0.2-0.1,0.3-0.2c0.2-0.4,0.3-0.9,0.5-1.3c0-0.1,0.1,0,0.1,0
				C146.1,27.9,145.9,28.5,145.6,29.1z M144.5,32.7l0.5-0.5c0.1,0,0.1,0,0.1,0.1c0.1,0.3-0.1,0.6-0.2,0.9c0,0.1-0.1,0.3,0,0.4
				c0.2,0,0.3-0.2,0.4-0.3c0.2-0.3,0.4-0.6,0.7-0.8c0,0,0.1,0,0.1,0c0,0.5-0.3,0.9-0.5,1.3c-0.2,0.4-0.6,0.7-1.1,0.6l-0.1-0.1
				C144.3,33.8,144.1,33.2,144.5,32.7z M146.1,38.7c0.1-0.1,0.1-0.2,0.2-0.2c0,0.2-0.2,0.3-0.2,0.5c-0.1,0.2-0.2,0.4-0.2,0.6
				c0.1,0.1,0.2,0,0.3,0c0.2-0.2,0.4-0.4,0.6-0.6c0,0,0,0.1,0,0.1c0,0,0,0.1,0,0.1c-0.2,0.4-0.4,1-0.9,1.1c-0.2,0.1-0.4,0-0.5-0.1
				c-0.1-0.3,0-0.7,0.2-1C145.7,39,145.9,38.8,146.1,38.7z M146.1,42.5c0,0.4,0.1,0.9-0.1,1.2c-0.1,0.1-0.2,0.2-0.3,0.1
				c-0.2-0.1-0.2-0.2-0.2-0.4c0-0.4-0.1-0.8,0.1-1.2c0.1-0.3,0.1-0.5,0.2-0.8c0-0.2,0.1-0.4,0.1-0.6c0.1,0.1,0,0.3,0.1,0.4
				C146,41.7,145.9,42.1,146.1,42.5z M145.3,45.5c0.1-0.2,0.2-0.5,0.4-0.7c0.1-0.2,0.4-0.1,0.6-0.2c0.2,0.1,0.6-0.1,0.5,0.2
				c-0.2,0.4-0.4,0.8-0.2,1.3c-0.1,0.2-0.6-0.1-0.5,0.3c0.1,0.3,0.5,0.1,0.6,0.3c0.1,0.3,0.1,0.7,0.1,1c0,0.1-0.1,0-0.1,0
				c-0.3-0.2-0.6-0.3-0.9-0.2c-0.2,0.1-0.3,0.3-0.5,0.5c-0.1,0.1-0.1-0.1-0.1-0.1C145.1,47.1,145.1,46.2,145.3,45.5z M147.8,42.9
				c-0.2-0.3-0.3-0.7-0.5-1c0-0.3-0.1-0.7,0-1c0-0.1,0-0.2,0.1-0.3l0,0c0,0.8,0.5,1.3,0.9,1.9c0.3,0.3,0.9,0.4,0.9,1
				c0,0.3,0.2,0.5,0,0.8c-0.1,0-0.1,0-0.1-0.1C148.8,43.6,148.3,43.3,147.8,42.9z M149.3,42c-0.4-0.4-0.7-0.9-0.5-1.5
				c0-0.4,0.2-0.8,0.5-1c0.1-0.1,0-0.3,0.1-0.3c0.1,0.1,0,0.2-0.1,0.2c0.1,0.4,0.3,1-0.1,1.3c0,0.1,0,0.2,0.1,0.2
				c0.4,0.1,0.3-0.4,0.5-0.5c0,0.3-0.2,0.6-0.4,0.8c0,0.1,0.2,0.1,0.2,0.2c0.2,0,0.3-0.3,0.4-0.4c0.1-0.4,0.1-0.9-0.2-1.3
				c0-0.1-0.1-0.3,0.1-0.4c0.2,0,0.4,0.3,0.5,0.5c0.2,0.4,0.3,1,0.1,1.4c0.1,0.5-0.3,0.6-0.6,0.9C149.8,42,149.5,42.1,149.3,42z
				 M150.3,42.9c0-0.2,0.2-0.3,0.3-0.4c0.2-0.4,0.4-0.9,0.7-1.3c0.2-0.2,0.1-0.5,0.2-0.8c0.1,0,0.1,0.2,0.2,0.3
				c0.1,0.5,0.1,1.1-0.1,1.5c-0.3,0.6-0.7,1.1-1,1.6c-0.1,0.1-0.1,0.3-0.2,0.4C150.1,43.8,150.2,43.3,150.3,42.9z M150.7,44.8
				c0.1-0.5,0.4-0.8,0.5-1.2c0.4-0.5,0.6-1,0.8-1.5c0-0.1-0.1-0.2,0-0.3c0.2,0.3,0.3,0.7,0.2,1.1c0,1-1.1,1.5-1.2,2.5
				c-0.1,0.1-0.2,0.3-0.3,0.4C150.6,45.5,150.7,45.1,150.7,44.8z M153,42.8c0-0.6,0.2-1.1,0.2-1.7c0-0.1,0.1-0.2,0.1-0.1
				c0.1,0.5,0,1.1,0.2,1.7c0,0.4,0.1,0.9-0.3,1.1c-0.1,0.1-0.2-0.1-0.3-0.2C152.8,43.4,153,43.2,153,42.8z M153.8,39.4
				c-0.1,0.1-0.2,0.2-0.4,0.1c-0.6-0.2-0.8-0.8-0.9-1.3c0.1,0,0.2,0.2,0.3,0.2c0.2,0.1,0.3,0.5,0.5,0.3c0-0.3-0.3-0.4-0.3-0.6
				c0-0.1-0.1-0.2-0.1-0.3c0.1,0,0.1,0.2,0.3,0.3c0.3,0.1,0.6,0.4,0.7,0.7C154,39,153.9,39.2,153.8,39.4z M152.7,30.8
				c-0.4-0.3-0.5-0.7-0.6-1.1c0-0.1-0.1-0.3,0-0.4c0.1,0,0.1,0.1,0.1,0.1c0.2,0.2,0.4,0.6,0.7,0.7c0.1,0.1,0.1,0.1,0.1,0.2
				c0.1,0,0.2,0,0.2-0.1c0-0.1-0.1-0.3-0.2-0.4c-0.1-0.3-0.4-0.5-0.3-0.9c0.1-0.1,0.2,0.1,0.4,0.2c0.4,0.1,1,0.4,1.1,0.9
				c0,0.3,0,0.7-0.2,0.8C153.5,31,153,31,152.7,30.8z M153.9,27.9c0.1,0.1,0.2,0.2,0.3,0.2c0.2,0.2,0.4,0.5,0.3,0.8
				c-0.1,0.1-0.1,0.3-0.2,0.4c-0.3,0-0.5-0.3-0.7-0.5c-0.2-0.2-0.3-0.4-0.2-0.7c0-0.1,0.1,0,0.2,0c0.2,0.1,0.3,0.4,0.5,0.2
				C153.9,28.2,153.8,28,153.9,27.9z M154.1,27.7c-0.3-0.4-0.6-0.9-0.6-1.5c0,0,0.1,0,0.1,0c0.2,0.3,0.5,0.8,1,0.8
				c0.1-0.1-0.1-0.3-0.1-0.4c0-0.2-0.1-0.3-0.1-0.5c0.1,0,0.1,0.1,0.2,0.2c0.3,0.2,0.6,0.4,0.7,0.8c0,0.3,0,0.7-0.3,0.9
				C154.7,28,154.4,27.9,154.1,27.7z M151,31.4c-0.3,0.4-0.8,0.8-1.4,0.8c-0.3-0.1-0.6-0.1-0.8-0.4c0-0.2-0.3-0.3-0.2-0.6
				c-0.2-0.5-0.4-1-0.3-1.6c-0.1-0.6,0.1-1.3,0.2-1.8c0.1-0.1,0.2-0.4,0.3-0.2c0,0.6-0.2,1.1,0.1,1.6c0.1,0,0.1,0.1,0.2,0.1
				c0.2-0.1,0-0.4,0.1-0.6c0.1-0.1,0.1,0,0.2,0.1c0.1,0.6,0,1.3,0.3,1.8c0.1,0.1,0.2,0.2,0.3,0.1c0.1-0.1,0-0.1,0.1-0.2
				c-0.3-0.8-0.3-1.8,0-2.6c0.1,0,0.1,0,0.1,0.1c0.1,0.5-0.1,1,0.1,1.5c0.2-0.1,0.2-0.3,0.3-0.5c0.1-0.5,0-1.1,0.1-1.6
				c0.1,0,0,0.1,0.1,0.1C151,28.8,151.8,30.2,151,31.4z M148.6,20.2c0-0.1,0.1-0.3-0.1-0.3c-0.1,0-0.3,0.1-0.4,0.1
				c0,0-0.1-0.1-0.1-0.1c0,0,0,0,0-0.1c0.2-0.1,0.5-0.3,0.7-0.4c0-0.1,0.2-0.2,0.3-0.1C149.1,19.7,148.9,20,148.6,20.2
				C148.6,20.3,148.7,20.3,148.6,20.2z M147.9,19.4c-0.2,0-0.4,0.1-0.6-0.1c0.1-0.2,0.3-0.1,0.4-0.2c0.3-0.1,0.4,0.2,0.7,0.2
				c0,0,0,0,0,0.1C148.3,19.4,148.1,19.3,147.9,19.4z M148.6,17.8c-0.1,0-0.1-0.2-0.2-0.2c-0.1-0.1-0.1-0.1-0.2-0.1
				c-0.1,0.1-0.2,0.3-0.3,0.4l0,0.1c-0.2,0-0.2-0.2-0.4-0.3c-0.1-0.3,0.1-0.5,0.3-0.7c0.2,0,0.4,0.1,0.6,0.3
				C148.5,17.4,148.6,17.6,148.6,17.8z M147.7,18.5c-0.1,0.3,0.3,0.2,0.4,0.3l0,0.1c0,0.1-0.2,0.1-0.3,0.1c-0.3-0.1-0.6,0-0.8,0.1
				c-0.1,0-0.2,0-0.3-0.1c0-0.2,0.3-0.1,0.4-0.1c0.1-0.1,0.2-0.1,0.3-0.2c-0.3-0.2-0.6,0-1,0c-0.2,0.1-0.5,0.1-0.7,0
				c0,0,0-0.1,0.1-0.1c0.3,0.1,0.5-0.2,0.8-0.2c0.2-0.1,0.5,0,0.8,0C147.5,18.4,147.6,18.4,147.7,18.5z M147,17.9
				c-0.5,0-0.9,0.3-1.4,0.2c0,0-0.1,0-0.1-0.1c0-0.1,0.1-0.1,0.1-0.1c0.1-0.2,0.4-0.1,0.5-0.2c0.1,0,0.3,0,0.4-0.1
				c0.3,0,0.6,0,0.8,0.3l0,0.1C147.2,18,147.1,17.9,147,17.9z M145.7,19.3c0.5-0.2,1.1,0,1.6,0.3c0.4,0.5,0.5,1.3,0.2,1.9
				c-0.2,0.4-0.5,0.9-1,0.9c-0.6,0.3-1.2,0-1.6-0.4c-0.3-0.4-0.6-0.9-0.4-1.4C144.5,20.1,145,19.5,145.7,19.3z M143.8,28.9
				C143.8,28.9,143.8,29,143.8,28.9c0,1.2,0.1,2.3,0.1,3.5c0.1,1,0.1,2.2,0.2,3.2c0,0.2-0.2,0.3-0.3,0.5c-0.1,0.1-0.2,0.3-0.4,0.3
				c-0.2-0.3-0.1-0.7-0.2-1.1c-0.1-1.7-0.3-3.5-0.3-5.3c0.1-0.2,0.2-0.4,0.3-0.6C143.5,29.3,143.7,29.1,143.8,28.9z M144.3,35.9
				L144.3,35.9c0.3-0.3,0.6-0.6,0.8-0.8c0,0,0.1,0,0.1,0c-0.1,0.5-0.2,1-0.6,1.5c0,0.1,0,0.1,0.1,0.1c0.2-0.3,0.4-0.5,0.7-0.7
				c0.2-0.2,0.3-0.4,0.5-0.6c0.1,0.2,0,0.4,0,0.5c-0.1,0.8-0.4,1.5-1.2,1.8c-0.2,0-0.4,0.2-0.7,0.1c-0.2,0-0.4-0.2-0.5-0.4
				C143.5,36.9,143.9,36.4,144.3,35.9z M143.9,38.2l0.3-0.1c0,0,0.1,0,0.1,0.1c0.1,0.9,0.1,1.8,0.2,2.7c0,0.7,0.1,1.2,0.2,1.9
				c0.1,0.4,0,0.9,0.2,1.3c0.2,0.4-0.1,0.6-0.2,0.9c-0.3,0,0-0.4-0.2-0.6c-0.3-1.2-0.6-2.3-0.7-3.5c-0.1-0.6-0.1-1.2-0.2-1.8
				c-0.1-0.3,0-0.6-0.1-0.9C143.7,38.1,143.8,38.2,143.9,38.2z M143.7,46.7c0-0.4,0.1-0.8,0.3-1.1c0-0.2,0.2-0.2,0.4-0.3
				c0.2,0,0.4-0.2,0.6,0c0,0.1,0.2,0.2,0.1,0.4c-0.1,0.2-0.2,0.4-0.4,0.6c-0.1,0-0.3-0.1-0.3,0.1c0,0.3,0.4,0.1,0.5,0.3
				c0,0.2,0.1,0.5,0,0.7c-0.2,0-0.5,0-0.7,0.1c-0.1,0.1-0.2,0.1-0.3,0.1C143.5,47.3,143.6,46.9,143.7,46.7z M144.2,47.6
				c0.2-0.1,0.4-0.1,0.6,0c0,0.2-0.1,0.5-0.1,0.7c0,0.3,0.2,0.6,0.5,0.7v0c-0.2,0.1-0.4-0.1-0.6-0.2c-0.3-0.2-0.3-0.5-0.4-0.7
				C144.2,48,144,47.8,144.2,47.6z M146.1,47.8c0.2,0,0.4,0,0.5,0.2c0,0.2-0.1,0.4-0.1,0.7c0,0.3,0,0.5,0.2,0.8l0,0.1
				c-0.2,0-0.4-0.2-0.5-0.3c-0.3-0.3-0.6-0.6-0.6-1C145.7,48.1,145.9,48,146.1,47.8z M155.4,47.6c-0.1,0,0-0.1,0-0.2
				c0.2-0.3,0.5-0.1,0.8-0.2l0,0c0.1,0.3-0.3,0.5-0.3,0.8c-0.1,0.1-0.1,0.2-0.1,0.2c-0.2,0.2-0.3,0.4-0.5,0.5l-0.1,0
				C155.2,48.5,155.6,48.1,155.4,47.6z M156.4,47c-0.1,0.1-0.1,0.1-0.2,0.1c-0.3-0.1-0.5,0.1-0.8,0.1c-0.1-0.2-0.2-0.5-0.1-0.7
				c0.2-0.2,0.4-0.3,0.5-0.5c0-0.1,0-0.1-0.1-0.1c-0.2,0-0.4,0.4-0.6,0.1c-0.1-0.2-0.2-0.5-0.3-0.8c0.2-0.1,0.4,0,0.5,0.1l0.3,0.1
				c0.5,0.1,0.5,0.7,0.8,1C156.3,46.5,156.6,46.8,156.4,47z M155.2,37c-0.6,0.1-1.2-0.2-1.6-0.6c-0.2-0.3-0.4-0.6-0.4-1
				c0-0.1,0.1-0.1,0.2-0.1c0.3,0.3,0.7,0.6,1.1,0.7l0.1-0.1c0.1,0,0.1,0.2,0.2,0.1c0,0,0.1-0.1,0-0.1c-0.5-0.4-0.8-0.9-0.9-1.4
				c0-0.1,0.1-0.1,0.2-0.1c0.5,0.3,1,0.7,1.5,1.1c0.2,0.3,0.4,0.6,0.3,0.9C155.7,36.7,155.5,36.9,155.2,37z M155.6,27.3
				c0-0.1,0.1,0,0.1,0c0.2,0.2,0.3,0.4,0.5,0.6c0.4,0.3,0.7,0.7,1.2,0.8c0.1,0.2,0.4,0.2,0.5,0.3c0,0.2-0.1,0.4-0.3,0.4
				c-0.5,0-0.9-0.4-1.2-0.7C155.9,28.3,155.7,27.8,155.6,27.3z M157.8,26.4c-0.1,0-0.3,0-0.4-0.1c-0.4-0.2-0.2-0.6-0.3-1
				c0-0.3-0.1-0.6,0.1-0.8c0.1,0,0.1,0.1,0.1,0.1C157.6,25.2,157.9,25.8,157.8,26.4z M157.5,22.6c0,0.1-0.1,0-0.2,0
				c-0.1-0.2-0.4-0.3-0.5-0.6c0-0.1-0.2-0.1-0.2,0c0,0-0.1,0.1,0,0.1c0.3,0.3,0.4,0.8,0.7,1.2c0,0.2-0.2,0.4-0.3,0.5
				c0,0-0.1,0-0.1,0c-0.2-0.1-0.2-0.3-0.3-0.5c0-0.1-0.1-0.3-0.1-0.4c0.1-0.4-0.3-0.6-0.4-0.9c-0.2-0.2-0.5-0.2-0.6-0.4
				c0-0.1,0-0.2,0.1-0.2c0.3-0.3,0.6,0.1,0.9-0.1c0.1,0.1,0.3,0,0.4,0c0.2,0.1,0.4,0.3,0.6,0.3c0.2,0.1,0.2,0.3,0.2,0.5
				C157.5,22.3,157.4,22.4,157.5,22.6z M156.9,19c0,0.1-0.1,0.3,0,0.4c0.1,0.1,0.3,0.1,0.3,0.3c0,0.1,0,0.2-0.1,0.2
				c-0.3,0-0.6,0.1-0.8,0.4c0,0.1,0,0.1,0.1,0.1c0.2,0,0.2-0.3,0.4-0.3c0.2,0,0.3-0.1,0.5,0c0,0.2,0.2,0.3,0.2,0.4
				c-0.1,0.3,0.1,0.7-0.1,0.9c-0.4,0-0.7-0.4-1.1-0.1c-0.2,0-0.5-0.2-0.7-0.1c-0.2-0.1-0.3-0.4-0.2-0.6c0.1-0.2,0.3-0.1,0.4-0.3
				c0.1,0,0.2,0.1,0.3,0c0-0.2-0.3-0.1-0.4-0.1c-0.1,0-0.2,0.1-0.4,0.1c-0.1-0.1-0.1-0.2-0.1-0.4c0.2-0.4,0.6-0.5,1-0.6
				c0,0,0.1-0.1,0-0.1c-0.4-0.3-0.8,0.1-1.2,0.3c-0.1,0-0.1,0-0.1-0.1c0.1-0.3,0.2-0.6,0.5-0.7c0,0,0.1-0.1,0.1-0.1
				c-0.1-0.1-0.2,0-0.3,0c-0.1,0.1-0.3,0.3-0.5,0.4c0-0.2,0.2-0.4,0.3-0.7c0,0,0-0.1-0.1-0.1c-0.3,0.2-0.5,0.5-0.8,0.7
				c-0.1,0-0.2,0-0.3,0c-0.1,0,0-0.1,0-0.2c0.2-0.3,0.5-0.6,0.6-0.9c0.2-0.6,0.9-0.5,1.3-0.9c0.2,0.1,0.4-0.1,0.5,0.1
				c-0.1,0.1-0.2,0.1-0.3,0.1c-0.2,0.2-0.6,0.3-0.7,0.6c0.2,0.1,0.2-0.1,0.3-0.2c0.1-0.1,0.2-0.2,0.3-0.1c0.2,0.2,0.3-0.3,0.4,0.1
				c-0.1,0.2-0.3,0.2-0.4,0.3c-0.1,0.1-0.3,0.3-0.3,0.5c0,0.1,0.1,0,0.2,0c0.2-0.2,0.4-0.4,0.7-0.4C156.9,18.3,157,18.6,156.9,19z
				 M153.5,16c0.2-0.3,0.6-0.2,0.8-0.4c0.7-0.2,1.4,0.1,2-0.4l0.7-0.5c0.3,0,0.4-0.3,0.6-0.4c0.1,0,0.2,0,0.2,0.1
				c-0.1,0.3-0.2,0.6-0.3,1c-0.1,0.5-0.6,0.6-1,0.9c-0.2,0.2-0.5,0.2-0.8,0.2c-0.6,0-1.1,0.3-1.4,0.8c0.1,0.2-0.1,0.3-0.2,0.3
				c-0.1,0.1-0.3,0.1-0.4,0.2c0.1,0.1,0.2,0,0.2,0.2c-0.3,0.3-0.8,0-1.1,0.3c0,0-0.1,0.1-0.1,0.1c0.1,0.1,0.3,0,0.3,0.1
				c-0.2,0.2-0.6,0.1-0.8,0.3c0,0.1,0,0.1,0.1,0.1c0.1,0,0.2-0.1,0.3,0c0,0.1-0.1,0.1-0.2,0.2c-0.3,0.1-0.6,0-0.8,0.2
				c0.1,0.1,0.3,0.1,0.4,0.2c-0.3,0.2-0.7,0.2-0.9,0.4c-0.2,0.1,0.1,0.7-0.3,0.5c-0.2-0.2-0.3-0.4-0.4-0.7c0.1-0.1,0-0.4,0.1-0.3
				c0.2,0.1,0.2,0.3,0.3,0.4c0.1,0,0.2-0.1,0.3-0.2c-0.2-0.3,0.3-0.3,0.4-0.5c0-0.3,0.3-0.2,0.4-0.3c0.3-0.1,0.5-0.1,0.8-0.2
				c0,0-0.1,0-0.1-0.1c0,0-0.1,0-0.1,0c0,0,0,0,0-0.1c0.3-0.4,0.8-0.3,1.2-0.4c0-0.1-0.2-0.1-0.1-0.2c0.3-0.2,0.8-0.1,0.9-0.5
				c0-0.1,0.1-0.2,0-0.2c-0.2,0.1-0.3,0.3-0.5,0.4c-0.2,0.2-0.4,0.3-0.6,0.4c0-0.1,0.1-0.2,0.2-0.3c0.3-0.3,0.5-0.7,0.7-1.1
				c0-0.1-0.1,0-0.2,0c-0.3,0.3-0.7,0.5-1,0.8c-0.1,0-0.2,0.1-0.2,0c-0.1-0.2,0.2-0.2,0.2-0.4C153.1,16.5,153.3,16.2,153.5,16z
				 M150.3,17.8c-0.1-0.1-0.1-0.3-0.1-0.5c0,0-0.1,0-0.1,0c-0.1,0.1-0.2,0.3-0.2,0.4c0,0-0.1,0-0.1,0c-0.1-0.3,0-0.6,0.1-0.8
				c0.1-0.1,0.2-0.2,0.3-0.2c0.1,0.1,0.2,0.2,0.3,0.3C150.4,17.3,150.4,17.6,150.3,17.8z M151.3,17.4c-0.1-0.1-0.2,0.1-0.3,0.1
				c-0.1,0.1-0.2,0.3-0.3,0.4c-0.1,0-0.1,0-0.1-0.1c0-0.3,0.1-0.5,0.2-0.7c0.1-0.2,0.3-0.2,0.4-0.4c0.1-0.1,0.4-0.2,0.4,0.1
				c0,0.2,0.1,0.4,0.2,0.6c0,0.2-0.2,0.4-0.2,0.6c0,0-0.1,0.1-0.2,0.1C151.4,17.8,151.3,17.6,151.3,17.4z M151.5,15.2
				c0-0.3,0.3-0.2,0.5-0.3c0.3,0,0.7,0,0.8,0.3c0.1,0.1,0.1,0.2,0.1,0.3c-0.2,0.1-0.1,0.4-0.3,0.5c-0.3-0.1-0.2-0.4-0.4-0.6
				c-0.3-0.2-0.5,0.1-0.8,0.2C151.3,15.4,151.5,15.3,151.5,15.2z M151.8,15.7c0.1,0,0.1,0,0.2,0.1c0,0.4,0.5,0.7,0.1,1
				c-0.3,0-0.2-0.3-0.3-0.5c-0.2-0.2-0.4,0.2-0.6,0.1c-0.1,0-0.2-0.1-0.1-0.2C151.1,15.9,151.6,15.8,151.8,15.7z M149.7,15.1
				c0.2-0.4,0.6-0.4,1-0.4c0.2,0.2,0.2,0.4,0.4,0.5c0,0.1,0,0.3-0.1,0.4c-0.1,0-0.2-0.2-0.3-0.2c-0.2-0.1-0.4-0.2-0.6-0.1
				c-0.1,0-0.2,0.2-0.3,0.1C149.7,15.3,149.7,15.2,149.7,15.1z M150.2,15.6c0.2-0.1,0.3,0.2,0.4,0.4c0,0.1,0.3,0.2,0.2,0.4
				c-0.1,0.1-0.1,0.2-0.2,0.2c-0.2-0.1-0.3-0.4-0.5-0.3c-0.1,0.1-0.2,0.2-0.3,0.2c-0.1-0.1-0.1-0.3-0.1-0.4
				C149.8,15.9,150,15.8,150.2,15.6z M149.6,19.5c0.2-0.1,0.4,0.1,0.5-0.1l0,0c0,0.2,0.2,0.5,0.1,0.7c0,0.1,0.1,0.2,0.1,0.4
				c-0.1,0-0.1-0.2-0.2-0.3c0-0.1-0.1-0.2-0.2-0.2c-0.2,0-0.1,0.5-0.3,0.2c-0.1-0.2,0.1-0.4-0.1-0.5c-0.1,0.2-0.2,0.3-0.2,0.5
				c-0.1,0-0.2-0.1-0.2-0.2c0.3-0.1-0.1-0.5,0.3-0.6C149.5,19.4,149.6,19.4,149.6,19.5z M149.4,17.5c-0.1,0-0.1-0.1-0.1-0.2
				c0-0.1-0.1-0.2-0.2-0.1c-0.1,0.1-0.1,0.3-0.1,0.4l0,0c-0.2-0.2-0.3-0.4-0.2-0.7c0-0.2,0.2-0.3,0.3-0.4c0.1,0,0.2,0.1,0.3,0.2
				C149.5,17,149.5,17.3,149.4,17.5z M148.7,16.3c0,0.1-0.1,0.2-0.2,0.3c-0.1,0-0.2-0.1-0.2-0.1c-0.1-0.1,0-0.2,0-0.3
				c0.1-0.2,0.2-0.5,0.4-0.6c0.2,0,0.4,0.3,0.6,0.2c0.1,0.1,0.1,0.2,0.1,0.3C149.2,16.3,148.8,16,148.7,16.3z M148.7,14.7
				c0.1,0,0.3,0,0.4,0.1c0.1,0.1,0.1,0.3,0.3,0.5c0,0.1,0,0.2-0.1,0.2c-0.4,0.1-0.4-0.4-0.8-0.3c-0.1,0.1-0.3,0.3-0.4,0.5
				c-0.1,0-0.1,0.1-0.2,0.1c-0.1-0.1-0.1-0.2-0.2-0.3C148,15.1,148.3,14.7,148.7,14.7z M147.9,16.3c0,0.1,0.1,0.3,0,0.4
				c-0.2,0-0.5,0-0.6,0.3c-0.1,0.1-0.1,0.3-0.3,0.4c-0.1-0.1-0.2-0.2-0.3-0.4c0.1-0.2,0.2-0.5,0.3-0.7c0,0,0.1-0.1,0.1-0.1
				C147.5,16.2,147.7,16.3,147.9,16.3z M146.6,15.1c0.2,0,0.4,0,0.6,0.2c0.1,0.1,0.2,0.3,0.3,0.3c0.1,0,0.1,0.1,0.1,0.2
				c-0.1,0.1-0.2,0-0.3,0c-0.2,0-0.5-0.3-0.6,0.1c-0.1,0.1-0.1,0.3-0.2,0.3c-0.1-0.1-0.2-0.3-0.2-0.5
				C146.4,15.4,146.4,15.2,146.6,15.1z M141.6,15.1c0-0.3,0-0.5,0-0.8c0,0,0.1-0.1,0.1-0.1c0.3-0.1,0.2,0.3,0.3,0.4
				c0.1,0.3,0.4,0.6,0.7,0.6c0.6,0,1.2-0.1,1.7,0.1c0.4,0.1,0.8,0.4,1.1,0.8c0.1,0,0.1-0.1,0.2-0.1c0.1,0.1,0.4,0.2,0.3,0.4
				c0.3,0,0.4,0.4,0.7,0.6c-0.2,0.2,0.5,0.5-0.1,0.5c-0.4-0.2-0.8,0.1-1.2,0.1c-0.1,0-0.2,0-0.3-0.1l0-0.1c0.2-0.2,0.5-0.3,0.8-0.3
				c0.1,0,0-0.2,0.2-0.1c0.1,0.1,0.1,0.2,0.2,0.2c0,0,0-0.1,0-0.1c-0.2,0-0.2-0.3-0.4-0.3c-0.1,0-0.3,0-0.4-0.2
				c-0.1-0.3-0.3-0.4-0.6-0.5c-0.1-0.1-0.2-0.1-0.3-0.1c-0.1,0.1-0.1,0.1-0.1,0.2c0.2,0.3,0.4,0.6,0.7,0.8v0c-0.3,0-0.5-0.4-0.7-0.3
				c0,0-0.1,0.1,0,0.2c0.1,0.2,0.3,0.4,0.2,0.6c-0.2,0-0.3-0.2-0.4-0.3c0-0.3-0.3-0.3-0.5-0.4c-0.2-0.1-0.4,0-0.7,0
				c-0.2-0.1-0.4,0.1-0.6-0.1C142.1,16.5,141.6,15.8,141.6,15.1z M141.4,26.2c0.1-0.4,0-0.8,0.3-1.1c0.2,0,0.1,0.3,0.1,0.4
				c0.1,0.3,0.1,0.7,0.2,1c-0.1,0.2-0.3,0.3-0.5,0.3C141.4,26.6,141.4,26.4,141.4,26.2z M143.1,25.6c0-0.1,0.2-0.1,0.2,0
				c0,0.3-0.1,0.6-0.2,0.9c-0.3,0.4-0.3,0.9-0.7,1.3c-0.2,0.1-0.4,0.4-0.7,0.4c-0.1-0.2-0.3-0.4-0.3-0.7
				C142,26.9,142.7,26.3,143.1,25.6z M141.9,29.3c-0.1,0.1-0.2,0.2-0.4,0.1c0-0.2-0.1-0.6,0.1-0.7c0.1-0.1,0.3-0.3,0.4-0.1
				C142.1,28.9,142.1,29.2,141.9,29.3z M142.3,29.2c0.3-0.4,0.7-0.7,0.8-1.2c0,0,0.1-0.1,0.1-0.1c-0.1,0.8-0.4,1.5-0.9,2.2
				c-0.2,0.3-0.6,0.4-0.9,0.5c-0.1,0-0.2-0.1-0.2-0.2c0-0.1-0.1-0.2-0.1-0.3C141.6,29.9,142,29.5,142.3,29.2z M140.2,28.8
				c0-0.3,0.1-0.5,0.4-0.7c0.1-0.1,0.3-0.2,0.5-0.2l0.2,0.3c0,0.4-0.4,0.5-0.6,0.7c-0.1,0-0.1,0.1-0.2,0.1
				C140.3,29,140.2,28.9,140.2,28.8z M140.5,32.6c-0.1,0-0.2-0.1-0.3-0.1c-0.1-0.1-0.2-0.3-0.2-0.5c0.1-0.2,0.4-0.2,0.5-0.5
				c0.3-0.2,0.5-0.5,0.8-0.8c0.1,0,0.3-0.1,0.4,0C141.4,31.5,141,32.1,140.5,32.6z M142.2,41.9c-0.4-1.3-0.7-2.6-0.9-4
				c-0.2-1.2-0.3-2.4-0.5-3.5c0.1-0.5,0-1.1,0-1.6c0.1-0.2,0.3-0.3,0.5-0.4c0,0,0.1,0,0.1,0c0,0.9,0.2,1.7,0.2,2.6
				c0.1,0.6,0.2,1.4,0.2,2c0,0.7,0.1,1.3,0.1,2c0.1,0.7,0.2,1.5,0.3,2.2C142.2,41.5,142.2,41.7,142.2,41.9L142.2,41.9z M142.5,40.9
				c-0.1-0.6-0.1-1.3-0.2-1.9c-0.2-1.2-0.2-2.4-0.3-3.6c-0.1-0.3-0.1-0.7-0.1-1.1c-0.1-0.8-0.1-1.6-0.2-2.3
				c-0.1-0.5,0.1-0.8,0.2-1.2c0.1-0.1,0.3-0.3,0.4-0.2c0.1,0.8,0,1.5,0.1,2.3c0.1,0.3,0.1,0.7,0.1,1c0.1,1.3,0.1,2.5,0.3,3.7
				c0.2,1.7,0.4,3.4,0.5,5.1c0.1,0.6,0.2,1.2,0.3,1.8c0,0-0.1,0.1-0.1,0C143,43.5,142.7,42.3,142.5,40.9z M156.5,41.3
				c-0.2,0.9-0.3,1.8-0.6,2.6c0,0.3-0.1,0.6-0.2,0.8c0,0-0.1,0-0.1,0c0-0.6,0.2-1.2,0.3-1.8c0.1-0.5,0.1-1,0.2-1.5
				c0.1-0.7,0.1-1.3,0.1-2c0.1-0.2,0.1-0.5,0.1-0.7c-0.1-0.5,0.1-1,0.1-1.5c0.1-0.5,0.2-1.1,0.2-1.6c0.1-1,0.2-1.9,0.2-2.9
				c0.1-0.3,0-0.7,0.1-0.9c0-0.3,0-0.5,0-0.8c0.1-0.2-0.2-0.7,0.2-0.7c0.1,0.1,0.3,0.2,0.4,0.3c0,0.3-0.1,0.6-0.1,0.9
				c0,0.5-0.1,1-0.1,1.5c0,0.7,0,1.5-0.1,2.2c-0.1,0.9-0.2,1.7-0.3,2.6C156.9,39,156.6,40.2,156.5,41.3z M158.6,31.9
				c-0.1,0.5,0,1.1-0.1,1.7c0,0.5-0.2,0.9-0.2,1.5c0,0.8-0.3,1.5-0.3,2.3c-0.1,0.8-0.3,1.5-0.5,2.3c-0.2,0.9-0.5,1.8-0.8,2.6
				c0,0-0.1,0-0.1,0c0.1-0.8,0.2-1.7,0.4-2.5c0.2-1,0.4-2.1,0.6-3.1c0.1-0.8,0.1-1.6,0.2-2.4c0.1-1,0.2-1.9,0.3-2.9
				c0.1-0.1,0.3,0.1,0.4,0.1C158.6,31.7,158.6,31.8,158.6,31.9z M159.2,31.5c-0.4-0.4-1-0.7-1.3-1.2c-0.1-0.1-0.2-0.3-0.2-0.5
				c0.1-0.1,0.1-0.2,0.2-0.1c0.2,0,0.3,0.3,0.5,0.3c0.1,0,0.1,0.2,0.1,0.2c0.2,0.2,0.5,0.5,0.7,0.7c0.1,0.1,0.2,0.2,0.1,0.4
				C159.4,31.3,159.3,31.5,159.2,31.5z"/>
			<path d="M142.3,15.4c0.2,0.2,0.5,0.2,0.8,0.2c0.3,0.1,0.6,0,0.8,0.2c0.1,0.1,0.3,0.2,0.3,0.5l-0.1,0c-0.6-0.3-1.3,0-1.8-0.5
				c-0.2,0-0.3-0.2-0.3-0.4c0-0.1,0-0.1,0-0.2C142.1,15.2,142.2,15.3,142.3,15.4z"/>
			<path d="M157.3,15.3c0,0.1-0.1,0.3-0.3,0.4c-0.5,0.3-1.2,0.5-1.8,0.4c0,0,0-0.1,0-0.1c0.4-0.1,0.9-0.2,1.2-0.4
				C156.7,15.5,157,15.3,157.3,15.3L157.3,15.3z"/>
			<path d="M145.3,20.1c-0.1,0-0.8,1.1-0.1,1.7c0.9,0.8,2-0.6,1.8-0.9c-0.1,0-0.4,0.8-1.2,0.6C144.9,21.3,145.4,20.1,145.3,20.1z"/>
			<path d="M152.5,21.5c0,0.3,1.1,0.8,1.6,0.1c0.7-1-0.3-1.7-0.6-1.4c-0.1,0.1,0.6,0.4,0.3,1.1C153.4,22,152.5,21.4,152.5,21.5z"/>
		</g>
	</g>
</g>
<g>
	<g>
		<path d="M14.1,89.8c0-1.3,0-3.6-0.4-4.2c-0.1-0.2-0.5-0.4-1-0.4l-0.5,0c-0.1-0.1-0.1-0.4,0-0.5c0.8,0,1.5,0.1,2.3,0.1
			c0.9,0,1.4,0,2.2-0.1c0.2,0.1,0.1,0.4,0,0.5l-0.5,0c-0.5,0-0.9,0.2-1,0.5c-0.3,0.7-0.3,3-0.3,4.2v2.3c0,1.8-0.3,3.7-1.4,4.9
			c-0.9,1-2.4,1.5-3.9,1.5c-1.4,0-2.8-0.3-3.8-1.1c-1.1-0.9-1.6-2.4-1.6-4.8v-4.8c0-2.1,0-2.5-1.2-2.6l-0.5,0
			c-0.1-0.1-0.1-0.4,0-0.5c1,0,1.7,0.1,2.5,0.1c0.8,0,1.5,0,2.5-0.1c0.1,0.1,0.2,0.4,0,0.5l-0.5,0c-1.2,0.1-1.2,0.5-1.2,2.6v4.4
			c0,3.3,1,5.5,4.2,5.5c3,0,4.1-2.3,4.1-5.4V89.8z"/>
		<path d="M33.7,94.7c0,0.6,0,3.1,0.1,3.6c0,0.1-0.2,0.2-0.4,0.2c-0.2-0.3-0.8-1.1-2.6-3.1L26,90c-0.6-0.6-1.9-2.3-2.4-2.8h0
			c-0.1,0.2-0.1,0.7-0.1,1.3V93c0,1,0,3.6,0.4,4.2c0.1,0.2,0.5,0.3,1,0.4l0.6,0.1c0.1,0.2,0.1,0.4,0,0.5c-0.9,0-1.6-0.1-2.4-0.1
			c-0.9,0-1.4,0-2.1,0.1c-0.1-0.1-0.2-0.4,0-0.5l0.6-0.1c0.5-0.1,0.8-0.2,0.9-0.4c0.3-0.7,0.3-3.2,0.3-4.2v-5.9c0-0.6,0-1-0.5-1.5
			c-0.3-0.3-0.8-0.4-1.3-0.5l-0.3,0c-0.1-0.1-0.1-0.4,0-0.5c0.9,0.1,1.9,0.1,2.3,0.1c0.3,0,0.7,0,0.9-0.1c0.4,1,2.8,3.7,3.5,4.5
			l2,2.2c1.4,1.6,2.4,2.7,3.4,3.7h0c0.1-0.1,0.1-0.4,0.1-0.9v-4.4c0-1,0-3.6-0.4-4.2c-0.1-0.2-0.5-0.3-1.3-0.4l-0.3,0
			c-0.1-0.1-0.1-0.5,0-0.5c0.9,0,1.6,0.1,2.4,0.1c0.9,0,1.4,0,2.1-0.1c0.2,0.1,0.2,0.4,0,0.5l-0.3,0c-0.7,0.1-1.1,0.3-1.1,0.4
			c-0.3,0.7-0.3,3.3-0.3,4.2V94.7z"/>
		<path d="M41.8,87.7c0-2.2,0-2.5-1.2-2.6l-0.5,0c-0.1-0.1-0.1-0.5,0-0.5c1,0,1.7,0.1,2.6,0.1c0.8,0,1.5,0,2.5-0.1
			c0.1,0.1,0.2,0.4,0,0.5l-0.5,0c-1.2,0.1-1.2,0.5-1.2,2.6V95c0,2.2,0,2.5,1.2,2.6l0.5,0.1c0.1,0.1,0.1,0.5,0,0.5
			c-1,0-1.7-0.1-2.5-0.1c-0.9,0-1.6,0-2.6,0.1c-0.1-0.1-0.2-0.4,0-0.5l0.5-0.1c1.2-0.1,1.2-0.4,1.2-2.6V87.7z"/>
		<path d="M51.2,86.8c-0.5-1.1-0.8-1.6-1.7-1.7l-0.4,0c-0.1-0.1-0.1-0.4,0-0.5c0.6,0,1.2,0.1,2.1,0.1c0.9,0,1.6,0,2.5-0.1
			c0.1,0.1,0.2,0.4,0,0.5l-0.3,0c-0.8,0.1-0.9,0.2-1,0.4c0,0.2,0.4,1.3,1,2.9c0.9,2.4,1.9,4.7,2.9,7.1c0.6-1.4,1.5-3.5,2-4.5
			c0.6-1.4,1.6-3.7,1.9-4.6c0.2-0.4,0.2-0.7,0.2-0.8c0-0.1-0.2-0.3-0.9-0.4l-0.4,0c-0.1-0.1-0.1-0.4,0-0.5c0.6,0,1.4,0.1,2.1,0.1
			c0.7,0,1.3,0,2-0.1c0.1,0.1,0.1,0.4,0,0.5l-0.6,0c-0.5,0-0.8,0.3-1.1,0.7c-0.6,1-1.4,2.6-2.3,4.7l-1.1,2.5
			c-0.8,1.9-1.8,4.3-2.1,5.3c-0.1,0-0.1,0.1-0.2,0.1c-0.1,0-0.2,0-0.3-0.1c-0.2-0.9-0.6-1.9-0.9-2.7L51.2,86.8z"/>
		<path d="M68.7,87.7c0-2.1,0-2.4-1.2-2.6l-0.3,0c-0.1-0.1-0.1-0.5,0-0.5c0.9,0,1.6,0.1,2.4,0.1h3.9c1.3,0,2.5,0,2.8-0.1
			c0.1,0.3,0.2,1.8,0.3,2.7c-0.1,0.1-0.4,0.2-0.5,0c-0.3-1-0.5-1.7-1.6-1.9c-0.4-0.1-1.1-0.1-2-0.1H71c-0.6,0-0.6,0-0.6,0.8v4.1
			c0,0.6,0.1,0.6,0.7,0.6h1.2c0.9,0,1.5,0,1.7-0.1c0.2-0.1,0.4-0.2,0.5-0.7l0.2-0.8c0.1-0.1,0.5-0.1,0.5,0c0,0.5-0.1,1.3-0.1,2.1
			c0,0.7,0.1,1.5,0.1,2c-0.1,0.1-0.4,0.1-0.5,0l-0.2-0.8c-0.1-0.4-0.2-0.7-0.6-0.8c-0.3-0.1-0.8-0.1-1.6-0.1H71
			c-0.6,0-0.7,0-0.7,0.6v2.9c0,1.1,0.1,1.8,0.4,2.1c0.2,0.2,0.7,0.5,2.5,0.5c1.6,0,2.2-0.1,2.6-0.3c0.4-0.2,0.9-0.9,1.5-2
			c0.1-0.1,0.4,0,0.5,0.1c-0.1,0.7-0.7,2.3-0.9,2.8c-1.8,0-3.7-0.1-5.5-0.1h-1.8c-0.9,0-1.6,0-2.8,0.1c-0.1-0.1-0.2-0.4,0-0.5
			l0.7-0.1c1.2-0.1,1.3-0.4,1.3-2.6V87.7z"/>
		<path d="M83.7,87.7c0-1.9-0.1-2.3-0.9-2.4l-0.7-0.1c-0.1-0.1-0.1-0.4,0-0.5c1.1-0.1,2.6-0.2,4.6-0.2c1.3,0,2.5,0.1,3.4,0.6
			c1,0.5,1.7,1.4,1.7,2.9c0,1.9-1.5,3-2.6,3.4c-0.1,0.1,0,0.3,0.1,0.5c1.6,2.6,2.7,4.3,4.1,5.4c0.3,0.3,0.9,0.5,1.4,0.6
			c0.1,0,0.1,0.2,0,0.3c-0.2,0.1-0.5,0.1-0.9,0.1c-1.7,0-2.8-0.5-4.2-2.6c-0.5-0.8-1.4-2.2-2-3.1c-0.3-0.5-0.6-0.7-1.5-0.7
			c-0.9,0-1,0-1,0.5v2.6c0,2.2,0,2.4,1.2,2.6l0.4,0.1c0.1,0.1,0.1,0.5,0,0.5c-0.9,0-1.6-0.1-2.4-0.1c-0.9,0-1.6,0-2.6,0.1
			c-0.1-0.1-0.2-0.4,0-0.5l0.5-0.1c1.2-0.1,1.2-0.4,1.2-2.6V87.7z M85.4,90.7c0,0.4,0,0.6,0.1,0.7c0.1,0.1,0.4,0.1,1.4,0.1
			c0.7,0,1.5-0.1,2.1-0.5c0.6-0.4,1-1.1,1-2.5c0-1.6-1-3.2-3.3-3.2c-1.3,0-1.3,0.1-1.3,0.7V90.7z"/>
		<path d="M102,98.5c-1.7,0-2.8-0.5-3.2-0.8c-0.2-0.5-0.5-1.9-0.6-2.9c0.1-0.1,0.4-0.2,0.5-0.1c0.3,1,1.1,3.1,3.5,3.1
			c1.7,0,2.6-1.1,2.6-2.4c0-0.9-0.2-1.9-1.7-2.9l-1.9-1.3c-1-0.7-2.2-1.8-2.2-3.5c0-1.9,1.5-3.5,4.2-3.5c0.6,0,1.4,0.1,1.9,0.3
			c0.3,0.1,0.6,0.1,0.7,0.1c0.2,0.5,0.4,1.6,0.4,2.5c-0.1,0.1-0.4,0.2-0.5,0.1c-0.3-1-0.8-2.3-2.8-2.3c-2,0-2.4,1.3-2.4,2.3
			c0,1.2,1,2,1.7,2.5l1.6,1c1.3,0.8,2.6,2,2.6,3.9C106.3,96.9,104.6,98.5,102,98.5z"/>
		<path d="M113.1,87.7c0-2.2,0-2.5-1.2-2.6l-0.5,0c-0.1-0.1-0.1-0.5,0-0.5c1,0,1.7,0.1,2.6,0.1c0.8,0,1.5,0,2.5-0.1
			c0.1,0.1,0.2,0.4,0,0.5l-0.5,0c-1.2,0.1-1.3,0.5-1.3,2.6V95c0,2.2,0,2.5,1.3,2.6l0.5,0.1c0.1,0.1,0.1,0.5,0,0.5
			c-1,0-1.7-0.1-2.5-0.1c-0.9,0-1.6,0-2.6,0.1c-0.1-0.1-0.2-0.4,0-0.5l0.5-0.1c1.2-0.1,1.2-0.4,1.2-2.6V87.7z"/>
		<path d="M128,95.1c0,2.2,0,2.5,1.2,2.6l0.7,0.1c0.1,0.1,0.1,0.5,0,0.5c-1.2,0-1.9-0.1-2.7-0.1c-0.8,0-1.5,0-2.8,0.1
			c-0.1-0.1-0.2-0.4,0-0.5l0.7-0.1c1.2-0.1,1.3-0.4,1.3-2.6v-9.2c0-0.6,0-0.7-0.6-0.7h-1.1c-0.9,0-2,0-2.5,0.5
			c-0.5,0.5-0.7,0.9-0.9,1.4c-0.2,0.1-0.5,0-0.5-0.1c0.3-0.9,0.6-2.2,0.8-3.1c0.1,0,0.3-0.1,0.4,0c0.1,0.7,0.8,0.6,1.7,0.6h8.3
			c1.1,0,1.3,0,1.6-0.6c0.1,0,0.3,0,0.4,0.1c-0.2,0.8-0.4,2.5-0.3,3.1c-0.1,0.2-0.4,0.2-0.5,0c-0.1-0.5-0.2-1.3-0.5-1.5
			c-0.5-0.3-1.3-0.5-2.4-0.5h-1.5c-0.6,0-0.6,0-0.6,0.7V95.1z"/>
		<path d="M144.2,95c0,2.2,0.1,2.5,1.2,2.6l0.8,0.1c0.1,0.1,0.1,0.5,0,0.5c-1.3,0-2-0.1-2.8-0.1c-0.9,0-1.6,0-2.7,0.1
			c-0.1-0.1-0.2-0.4,0-0.5l0.6-0.1c1.2-0.1,1.2-0.4,1.2-2.6v-1c0-1.1-0.1-1.4-0.7-2.5l-2.4-4.7c-0.7-1.4-1-1.5-1.6-1.6l-0.6-0.1
			c-0.1-0.1-0.1-0.4,0-0.5c0.7,0,1.4,0.1,2.4,0.1c0.9,0,1.7,0,2.2-0.1c0.2,0.1,0.2,0.4,0.1,0.5l-0.3,0c-0.7,0.1-0.9,0.2-0.9,0.4
			c0,0.2,0.5,1.4,0.6,1.6c0.8,1.5,1.5,3.1,2.3,4.5c0.6-1.1,1.3-2.3,1.9-3.5c0.6-1.1,1.3-2.5,1.3-2.7c0-0.1-0.4-0.3-0.9-0.3l-0.4,0
			c-0.1-0.1-0.1-0.4,0-0.5c0.7,0,1.3,0.1,2,0.1c0.6,0,1.2,0,1.9-0.1c0.2,0.1,0.2,0.4,0,0.5l-0.6,0.1c-1.1,0.2-1.7,1.5-2.7,3.2
			l-1.3,2.2c-0.9,1.6-1,1.7-1,3.3V95z"/>
		<path d="M161.3,91.5c0-4.1,3.1-7.2,7.3-7.2c4.7,0,7.1,3.4,7.1,7c0,4.1-3.2,7.1-7.1,7.1C164,98.5,161.3,95.2,161.3,91.5z M173.6,92
			c0-3.4-1.5-7-5.4-7c-2.1,0-4.9,1.5-4.9,5.9c0,3,1.5,7,5.5,7C171.3,97.8,173.6,96,173.6,92z"/>
		<path d="M184,90.4c0,0.6,0.1,0.6,0.7,0.6h1.4c0.8,0,1.5,0,1.7-0.1c0.2-0.1,0.4-0.2,0.5-0.7l0.2-0.8c0.1-0.1,0.5-0.1,0.5,0
			c0,0.5-0.1,1.3-0.1,2.1c0,0.7,0.1,1.5,0.1,2c-0.1,0.1-0.4,0.1-0.5,0l-0.2-0.8c-0.1-0.4-0.3-0.7-0.7-0.8c-0.3-0.1-0.8-0.1-1.6-0.1
			h-1.4c-0.6,0-0.7,0-0.7,0.6v2.8c0,2.2,0,2.5,1.2,2.6l0.7,0.1c0.1,0.1,0.1,0.5,0,0.5c-1.2,0-1.9-0.1-2.7-0.1c-0.9,0-1.6,0-2.6,0.1
			c-0.1-0.1-0.2-0.4,0-0.5l0.5-0.1c1.2-0.1,1.2-0.4,1.2-2.6v-7.4c0-2.2,0-2.4-1.2-2.6l-0.3,0c-0.1-0.1-0.1-0.5,0-0.5
			c0.9,0,1.6,0.1,2.4,0.1h3.8c1.3,0,2.5,0,2.8-0.1c0,0.9,0,1.9,0.1,2.7c-0.1,0.1-0.3,0.2-0.5,0.1c-0.2-0.9-0.4-1.7-1.4-1.9
			c-0.5-0.1-1.1-0.1-2-0.1h-1.2c-0.6,0-0.6,0-0.6,0.8V90.4z"/>
		<path d="M204.6,87.3c0-1.5-0.1-1.9-1-2l-0.7-0.1c-0.2-0.1-0.1-0.4,0-0.5c1.1-0.1,2.5-0.2,4.4-0.2c1.3,0,2.5,0.1,3.4,0.6
			c0.9,0.4,1.6,1.2,1.6,2.6c0,1.5-0.9,2.2-2.1,2.8c0,0.2,0.2,0.3,0.4,0.3c1.1,0.2,2.7,1.2,2.7,3.4c0,2.4-1.8,4-5.4,4
			c-0.6,0-1.6-0.1-2.5-0.1c-0.9,0-1.6,0-2.4,0.1c-0.1-0.1-0.2-0.4,0-0.5l0.4-0.1c1.1-0.2,1.1-0.4,1.1-2.6V87.3z M206.3,90
			c0,0.6,0,0.6,1.1,0.6c2.1-0.1,3.2-0.7,3.2-2.6c0-2-1.5-2.8-3.1-2.8c-0.4,0-0.8,0-0.9,0.1c-0.2,0.1-0.3,0.2-0.3,0.5V90z
			 M206.3,94.8c0,0.7,0,1.8,0.4,2.2c0.4,0.5,1,0.6,1.6,0.6c1.8,0,3.2-0.8,3.2-2.9c0-1.6-0.8-3.5-4.1-3.5c-1.1,0-1.2,0.1-1.2,0.5
			V94.8z"/>
		<path d="M220,87.7c0-2.1,0-2.4-1.2-2.6l-0.3,0c-0.1-0.1-0.1-0.5,0-0.5c0.9,0,1.6,0.1,2.4,0.1h3.9c1.3,0,2.5,0,2.8-0.1
			c0.1,0.3,0.2,1.8,0.3,2.7c-0.1,0.1-0.4,0.2-0.5,0c-0.3-1-0.5-1.7-1.6-1.9c-0.4-0.1-1.1-0.1-2-0.1h-1.5c-0.6,0-0.6,0-0.6,0.8v4.1
			c0,0.6,0.1,0.6,0.7,0.6h1.2c0.9,0,1.5,0,1.7-0.1c0.2-0.1,0.4-0.2,0.5-0.7l0.2-0.8c0.1-0.1,0.5-0.1,0.5,0c0,0.5-0.1,1.3-0.1,2.1
			c0,0.7,0.1,1.5,0.1,2c-0.1,0.1-0.4,0.1-0.5,0l-0.2-0.8c-0.1-0.4-0.2-0.7-0.6-0.8c-0.3-0.1-0.8-0.1-1.6-0.1h-1.2
			c-0.6,0-0.7,0-0.7,0.6v2.9c0,1.1,0.1,1.8,0.4,2.1c0.2,0.2,0.7,0.5,2.5,0.5c1.6,0,2.2-0.1,2.6-0.3c0.4-0.2,0.9-0.9,1.5-2
			c0.1-0.1,0.4,0,0.5,0.1c-0.1,0.7-0.7,2.3-0.9,2.8c-1.8,0-3.7-0.1-5.5-0.1h-1.8c-0.9,0-1.6,0-2.8,0.1c-0.1-0.1-0.2-0.4,0-0.5
			l0.7-0.1c1.2-0.1,1.3-0.4,1.3-2.6V87.7z"/>
		<path d="M235.1,87.7c0-1.9-0.1-2.3-0.9-2.4l-0.7-0.1c-0.1-0.1-0.1-0.4,0-0.5c1.1-0.1,2.6-0.2,4.6-0.2c1.3,0,2.5,0.1,3.4,0.6
			c1,0.5,1.7,1.4,1.7,2.9c0,1.9-1.5,3-2.6,3.4c-0.1,0.1,0,0.3,0.1,0.5c1.6,2.6,2.7,4.3,4.1,5.4c0.3,0.3,0.9,0.5,1.4,0.6
			c0.1,0,0.1,0.2,0,0.3c-0.2,0.1-0.5,0.1-0.9,0.1c-1.7,0-2.8-0.5-4.2-2.6c-0.5-0.8-1.4-2.2-2-3.1c-0.3-0.5-0.6-0.7-1.5-0.7
			c-0.9,0-1,0-1,0.5v2.6c0,2.2,0,2.4,1.2,2.6l0.4,0.1c0.1,0.1,0.1,0.5,0,0.5c-0.9,0-1.6-0.1-2.4-0.1c-0.9,0-1.6,0-2.6,0.1
			c-0.1-0.1-0.2-0.4,0-0.5l0.5-0.1c1.2-0.1,1.2-0.4,1.2-2.6V87.7z M236.8,90.7c0,0.4,0,0.6,0.1,0.7c0.1,0.1,0.4,0.1,1.4,0.1
			c0.7,0,1.5-0.1,2.1-0.5c0.6-0.4,1-1.1,1-2.5c0-1.6-1-3.2-3.3-3.2c-1.3,0-1.3,0.1-1.3,0.7V90.7z"/>
		<path d="M261.3,96.1c0,0.8,0.1,1.3,0.5,1.5c0.1,0.1,0.1,0.2,0,0.2c-0.2,0-0.6,0.1-1,0.2c-1.1,0.3-2.6,0.5-3.7,0.5
			c-2.4,0-4.7-0.7-6.2-2.3c-1.2-1.2-1.9-2.8-1.9-4.6c0-1.7,0.6-3.5,1.8-4.9c1.4-1.4,3.4-2.4,6.5-2.4c1.2,0,2.3,0.2,2.6,0.3
			c0.4,0.1,1,0.2,1.3,0.2c0,0.7,0.1,1.7,0.3,3c-0.1,0.2-0.4,0.2-0.6,0.1c-0.6-2.2-2.1-2.9-4.2-2.9c-4,0-5.7,2.8-5.7,5.9
			c0,3.9,2,7,6.1,7c1.3,0,2-0.3,2.3-0.6c0.1-0.1,0.2-0.5,0.2-1.2v-0.8c0-1.7-0.1-1.8-1.3-2l-0.9-0.1c-0.2-0.1-0.1-0.5,0-0.5
			c0.6,0,1.7,0.1,2.9,0.1c0.8,0,1.5,0,2.2-0.1c0.1,0.1,0.2,0.4,0,0.5l-0.3,0c-0.9,0.1-0.9,0.7-0.9,1.7V96.1z"/>
		<path d="M269,87.7c0-2.1,0-2.4-1.2-2.6l-0.3,0c-0.1-0.1-0.1-0.5,0-0.5c0.9,0,1.6,0.1,2.4,0.1h3.8c1.3,0,2.5,0,2.8-0.1
			c0.1,0.3,0.2,1.8,0.3,2.7c-0.1,0.1-0.4,0.2-0.5,0c-0.3-1-0.5-1.7-1.6-1.9c-0.4-0.1-1.1-0.1-2-0.1h-1.5c-0.6,0-0.6,0-0.6,0.8v4.1
			c0,0.6,0.1,0.6,0.7,0.6h1.2c0.9,0,1.5,0,1.7-0.1c0.2-0.1,0.4-0.2,0.5-0.7l0.2-0.8c0.1-0.1,0.4-0.1,0.5,0c0,0.5-0.1,1.3-0.1,2.1
			c0,0.7,0.1,1.5,0.1,2c-0.1,0.1-0.4,0.1-0.5,0l-0.2-0.8c-0.1-0.4-0.2-0.7-0.6-0.8c-0.3-0.1-0.8-0.1-1.6-0.1h-1.2
			c-0.6,0-0.7,0-0.7,0.6v2.9c0,1.1,0.1,1.8,0.4,2.1c0.2,0.2,0.7,0.5,2.5,0.5c1.6,0,2.2-0.1,2.6-0.3c0.4-0.2,0.9-0.9,1.5-2
			c0.1-0.1,0.4,0,0.5,0.1c-0.1,0.7-0.7,2.3-0.9,2.8c-1.8,0-3.7-0.1-5.5-0.1h-1.8c-0.9,0-1.6,0-2.8,0.1c-0.1-0.1-0.2-0.4,0-0.5
			l0.7-0.1c1.2-0.1,1.3-0.4,1.3-2.6V87.7z"/>
		<path d="M295.1,94.7c0,0.6,0,3.1,0.1,3.6c0,0.1-0.2,0.2-0.4,0.2c-0.2-0.3-0.8-1.1-2.6-3.1l-4.8-5.4c-0.6-0.6-1.9-2.3-2.4-2.8h0
			c-0.1,0.2-0.1,0.7-0.1,1.3V93c0,1,0,3.6,0.4,4.2c0.1,0.2,0.5,0.3,1,0.4l0.6,0.1c0.1,0.2,0.1,0.4,0,0.5c-0.9,0-1.6-0.1-2.4-0.1
			c-0.9,0-1.4,0-2.1,0.1c-0.1-0.1-0.2-0.4,0-0.5l0.6-0.1c0.5-0.1,0.8-0.2,0.9-0.4C284,96.5,284,94,284,93v-5.9c0-0.6,0-1-0.5-1.5
			c-0.3-0.3-0.8-0.4-1.3-0.5l-0.3,0c-0.1-0.1-0.1-0.4,0-0.5c0.9,0.1,1.9,0.1,2.3,0.1c0.3,0,0.7,0,0.9-0.1c0.4,1,2.8,3.7,3.5,4.5
			l2,2.2c1.4,1.6,2.4,2.7,3.4,3.7h0c0.1-0.1,0.1-0.4,0.1-0.9v-4.4c0-1,0-3.6-0.4-4.2c-0.1-0.2-0.4-0.3-1.3-0.4l-0.3,0
			c-0.1-0.1-0.1-0.5,0-0.5c0.9,0,1.6,0.1,2.4,0.1c0.9,0,1.4,0,2.1-0.1c0.2,0.1,0.2,0.4,0,0.5l-0.3,0c-0.7,0.1-1.1,0.3-1.1,0.4
			c-0.3,0.7-0.3,3.3-0.3,4.2V94.7z"/>
	</g>
</g>
</svg>
