<?xml version="1.0" encoding="utf-8"?>
<!-- Generator: Adobe Illustrator 24.2.3, SVG Export Plug-In . SVG Version: 6.00 Build 0)  -->
<svg version="1.1" id="Layer_1" xmlns="http://www.w3.org/2000/svg" xmlns:xlink="http://www.w3.org/1999/xlink" x="0px" y="0px"
	 viewBox="0 0 23 13" style="enable-background:new 0 0 23 13;" xml:space="preserve">
<path id="search-light" d="M12.9,12.2L9.6,8.9C9.6,8.9,9.5,8.8,9.4,8.8H9.1c2-2.1,1.8-5.5-0.3-7.4S3.3-0.4,1.4,1.7s-1.8,5.5,0.3,7.4
	c2,1.8,5.1,1.8,7.1,0v0.3c0,0.1,0,0.2,0.1,0.2l3.3,3.3c0.1,0.1,0.3,0.1,0.4,0c0,0,0,0,0,0l0.3-0.3C13,12.5,13,12.3,12.9,12.2z
	 M5.2,9.7c-2.5,0-4.5-2-4.5-4.5c0-2.5,2-4.5,4.5-4.5c2.5,0,4.5,2,4.5,4.5C9.7,7.7,7.7,9.7,5.2,9.7C5.2,9.7,5.2,9.7,5.2,9.7z"/>
</svg>
