<?xml version="1.0" encoding="utf-8"?>
<!-- Generator: Adobe Illustrator 24.2.3, SVG Export Plug-In . SVG Version: 6.00 Build 0)  -->
<svg version="1.1" id="Layer_1" xmlns="http://www.w3.org/2000/svg" xmlns:xlink="http://www.w3.org/1999/xlink" x="0px" y="0px"
	 viewBox="0 0 12.5 12.4" style="enable-background:new 0 0 12.5 12.4;" xml:space="preserve">
<path id="search-light" d="M12.4,11.7L9.2,8.5C9.2,8.5,9.1,8.4,9,8.4H8.8c1.9-2.1,1.7-5.2-0.3-7.1S3.2-0.4,1.3,1.6s-1.7,5.2,0.3,7.1
	c1.9,1.8,4.9,1.8,6.8,0V9c0,0.1,0,0.2,0.1,0.2l3.2,3.2c0.1,0.1,0.3,0.1,0.4,0c0,0,0,0,0,0l0.2-0.2C12.5,12,12.5,11.8,12.4,11.7z
	 M5,9.3C2.6,9.3,0.7,7.4,0.7,5c0-2.4,1.9-4.3,4.3-4.3c2.4,0,4.3,1.9,4.3,4.3C9.3,7.4,7.4,9.3,5,9.3C5,9.3,5,9.3,5,9.3z"/>
</svg>
